<svg width="188" height="72" viewBox="0 0 188 72" fill="none" xmlns="http://www.w3.org/2000/svg">
<g filter="url(#filter0_d_8_257)">
<rect x="12.444" y="7" width="163.44" height="48.4219" rx="5.52912" fill="black" stroke="white" stroke-width="1.10582"/>
<path d="M45.2374 31.5308C45.2525 30.357 45.5634 29.2061 46.1412 28.1851C46.7191 27.1642 47.5451 26.3064 48.5423 25.6916C47.9088 24.7843 47.073 24.0376 46.1014 23.5108C45.1297 22.9841 44.0489 22.6918 42.9449 22.6572C40.5899 22.4093 38.3068 24.0703 37.1067 24.0703C35.8833 24.0703 34.0356 22.6818 32.0459 22.7228C30.7589 22.7645 29.5046 23.1398 28.4053 23.8121C27.3059 24.4844 26.399 25.4308 25.7729 26.5591C23.0605 31.2681 25.0837 38.1888 27.6819 41.9952C28.9818 43.8591 30.5011 45.9411 32.489 45.8673C34.4343 45.7864 35.1608 44.6234 37.5089 44.6234C39.8352 44.6234 40.5169 45.8673 42.5451 45.8203C44.6325 45.7864 45.9476 43.9482 47.202 42.0666C48.136 40.7385 48.8547 39.2707 49.3315 37.7175C48.1188 37.2032 47.0839 36.3422 46.3558 35.2421C45.6278 34.1419 45.2388 32.8512 45.2374 31.5308Z" fill="white"/>
<path d="M41.4074 20.154C42.5455 18.7839 43.1062 17.0229 42.9704 15.245C41.2316 15.4281 39.6254 16.2615 38.4719 17.579C37.908 18.2226 37.476 18.9714 37.2008 19.7825C36.9256 20.5937 36.8125 21.4512 36.8679 22.3062C37.7377 22.3152 38.5981 22.1262 39.3844 21.7534C40.1707 21.3806 40.8624 20.8337 41.4074 20.154Z" fill="white"/>
<path d="M72.4179 39.8086H66.1045L64.5883 44.2979H61.9142L67.8942 27.6886H70.6725L76.6525 44.2979H73.9328L72.4179 39.8086ZM66.7583 37.737H71.7628L69.2958 30.4512H69.2267L66.7583 37.737Z" fill="white"/>
<path d="M89.567 38.2438C89.567 42.0068 87.5585 44.4245 84.5274 44.4245C83.7596 44.4648 82.996 44.2874 82.324 43.9128C81.6521 43.5381 81.0989 42.9812 80.7279 42.3059H80.6705V48.3038H78.1918V32.1884H80.5911V34.2025H80.6367C81.0248 33.5304 81.5873 32.9765 82.2644 32.5995C82.9415 32.2225 83.7078 32.0366 84.4818 32.0617C87.5467 32.0617 89.567 34.4911 89.567 38.2438ZM87.0192 38.2438C87.0192 35.7921 85.7557 34.1803 83.828 34.1803C81.934 34.1803 80.6601 35.8261 80.6601 38.2438C80.6601 40.6837 81.934 42.3177 83.828 42.3177C85.7557 42.3177 87.0192 40.7176 87.0192 38.2438Z" fill="white"/>
<path d="M102.859 38.2438C102.859 42.0068 100.85 44.4245 97.819 44.4245C97.0512 44.4648 96.2876 44.2874 95.6156 43.9127C94.9436 43.5381 94.3905 42.9812 94.0195 42.3059H93.9621V48.3038H91.4833V32.1884H93.8826V34.2025H93.9282C94.3163 33.5304 94.8788 32.9764 95.5559 32.5995C96.233 32.2225 96.9993 32.0366 97.7734 32.0617C100.838 32.0617 102.859 34.4911 102.859 38.2438ZM100.311 38.2438C100.311 35.7921 99.0473 34.1803 97.1195 34.1803C95.2256 34.1803 93.9517 35.826 93.9517 38.2438C93.9517 40.6837 95.2256 42.3177 97.1195 42.3177C99.0473 42.3177 100.311 40.7176 100.311 38.2438H100.311Z" fill="white"/>
<path d="M111.644 39.6704C111.827 41.3175 113.423 42.3989 115.603 42.3989C117.693 42.3989 119.196 41.3174 119.196 39.8323C119.196 38.5431 118.289 37.7712 116.143 37.2422L113.996 36.7237C110.955 35.987 109.543 34.5606 109.543 32.2461C109.543 29.3804 112.033 27.412 115.57 27.412C119.069 27.412 121.469 29.3804 121.55 32.2461H119.047C118.898 30.5886 117.531 29.5881 115.534 29.5881C113.537 29.5881 112.171 30.6004 112.171 32.0737C112.171 33.248 113.044 33.9389 115.179 34.4679L117.004 34.9172C120.402 35.7231 121.814 37.092 121.814 39.5214C121.814 42.6288 119.346 44.575 115.42 44.575C111.746 44.575 109.266 42.6745 109.106 39.6703L111.644 39.6704Z" fill="white"/>
<path d="M127.162 29.3229V32.1886H129.458V34.157H127.162V40.8328C127.162 41.8699 127.622 42.3532 128.631 42.3532C128.904 42.3484 129.176 42.3292 129.447 42.2957V44.2523C128.993 44.3373 128.531 44.3758 128.07 44.3672C125.625 44.3672 124.671 43.4464 124.671 41.0979V34.157H122.916V32.1886H124.671V29.3229H127.162Z" fill="white"/>
<path d="M130.788 38.2442C130.788 34.4341 133.026 32.0399 136.516 32.0399C140.017 32.0399 142.244 34.4341 142.244 38.2442C142.244 42.0648 140.029 44.4485 136.516 44.4485C133.004 44.4485 130.788 42.0647 130.788 38.2442ZM139.719 38.2442C139.719 35.6306 138.524 34.088 136.516 34.088C134.507 34.088 133.314 35.6423 133.314 38.2442C133.314 40.8683 134.507 42.3991 136.516 42.3991C138.524 42.3991 139.719 40.8683 139.719 38.2442H139.719Z" fill="white"/>
<path d="M144.288 32.1883H146.652V34.2494H146.71C146.87 33.6056 147.246 33.0368 147.775 32.6383C148.304 32.2399 148.953 32.0362 149.614 32.0616C149.9 32.0606 150.185 32.0917 150.464 32.1543V34.4793C150.103 34.3688 149.727 34.318 149.35 34.3291C148.99 34.3144 148.631 34.3781 148.297 34.5157C147.964 34.6533 147.665 34.8616 147.419 35.1263C147.174 35.391 146.988 35.7058 146.876 36.0491C146.763 36.3924 146.726 36.756 146.767 37.1151V44.2977H144.288L144.288 32.1883Z" fill="white"/>
<path d="M161.893 40.7416C161.56 42.9399 159.425 44.4485 156.693 44.4485C153.181 44.4485 151 42.0883 151 38.3017C151 34.5034 153.192 32.0399 156.589 32.0399C159.93 32.0399 162.031 34.3414 162.031 38.013V38.8647H153.502V39.0149C153.463 39.4605 153.519 39.9095 153.665 40.3319C153.812 40.7544 154.047 41.1406 154.355 41.465C154.662 41.7894 155.034 42.0446 155.448 42.2135C155.861 42.3824 156.305 42.4613 156.751 42.4448C157.337 42.4999 157.924 42.3638 158.427 42.057C158.929 41.7501 159.32 41.2888 159.54 40.7416L161.893 40.7416ZM153.514 37.1275H159.551C159.574 36.7267 159.513 36.3257 159.373 35.9496C159.234 35.5735 159.018 35.2304 158.74 34.9418C158.462 34.6532 158.127 34.4254 157.757 34.2726C157.387 34.1198 156.989 34.0454 156.589 34.0541C156.186 34.0516 155.786 34.1294 155.412 34.2829C155.038 34.4363 154.699 34.6625 154.413 34.9482C154.127 35.2339 153.9 35.5736 153.746 35.9477C153.592 36.3217 153.513 36.7227 153.514 37.1275V37.1275Z" fill="white"/>
<path d="M66.4481 15.1868C66.9678 15.1494 67.4892 15.2281 67.9749 15.4173C68.4606 15.6064 68.8983 15.9013 69.2565 16.2807C69.6148 16.66 69.8846 17.1144 70.0465 17.611C70.2085 18.1076 70.2585 18.634 70.1929 19.1523C70.1929 21.7019 68.8187 23.1675 66.4481 23.1675H63.5734V15.1868H66.4481ZM64.8095 22.0388H66.31C66.6814 22.0611 67.053 22.0001 67.3978 21.8601C67.7427 21.7202 68.0521 21.5049 68.3035 21.23C68.5549 20.955 68.742 20.6273 68.8512 20.2707C68.9604 19.9141 68.9889 19.5376 68.9347 19.1685C68.985 18.801 68.9535 18.4268 68.8427 18.0728C68.7318 17.7188 68.5442 17.3938 68.2934 17.121C68.0426 16.8482 67.7347 16.6345 67.3918 16.4951C67.0489 16.3557 66.6795 16.294 66.31 16.3146H64.8095V22.0388Z" fill="white"/>
<path d="M71.5896 20.1532C71.5518 19.7574 71.597 19.3581 71.7222 18.9808C71.8473 18.6035 72.0497 18.2567 72.3164 17.9624C72.5831 17.6682 72.9082 17.4331 73.2708 17.2723C73.6334 17.1114 74.0255 17.0283 74.422 17.0283C74.8185 17.0283 75.2106 17.1114 75.5732 17.2723C75.9358 17.4331 76.2609 17.6682 76.5276 17.9624C76.7943 18.2567 76.9967 18.6035 77.1219 18.9808C77.247 19.3581 77.2922 19.7574 77.2544 20.1532C77.2929 20.5494 77.2483 20.9493 77.1234 21.3272C76.9986 21.7051 76.7963 22.0526 76.5296 22.3474C76.2628 22.6422 75.9375 22.8778 75.5745 23.039C75.2116 23.2002 74.819 23.2835 74.422 23.2835C74.025 23.2835 73.6324 23.2002 73.2695 23.039C72.9065 22.8778 72.5812 22.6422 72.3145 22.3474C72.0477 22.0526 71.8454 21.7051 71.7206 21.3272C71.5957 20.9493 71.5511 20.5494 71.5896 20.1532ZM76.0352 20.1532C76.0352 18.8477 75.4504 18.0843 74.424 18.0843C73.3936 18.0843 72.814 18.8477 72.814 20.1532C72.814 21.4692 73.3937 22.2268 74.424 22.2268C75.4504 22.2268 76.0352 21.464 76.0352 20.1532H76.0352Z" fill="white"/>
<path d="M84.7852 23.1669H83.5556L82.3142 18.7311H82.2205L80.9843 23.1669H79.7664L78.1109 17.1441H79.3132L80.3891 21.7398H80.4777L81.7125 17.1441H82.8496L84.0844 21.7398H84.1782L85.2489 17.1441H86.4342L84.7852 23.1669Z" fill="white"/>
<path d="M87.8254 17.1446H88.9665V18.1013H89.0551C89.2053 17.7577 89.4587 17.4696 89.78 17.2773C90.1013 17.085 90.4744 16.9979 90.8474 17.0283C91.1396 17.0063 91.433 17.0505 91.7059 17.1576C91.9788 17.2647 92.2242 17.4321 92.4238 17.6472C92.6235 17.8623 92.7723 18.1197 92.8593 18.4004C92.9463 18.681 92.9691 18.9777 92.9262 19.2684V23.1672H91.7409V19.5669C91.7409 18.599 91.3215 18.1177 90.4449 18.1177C90.2465 18.1084 90.0484 18.1423 89.8643 18.2169C89.6801 18.2916 89.5142 18.4053 89.378 18.5503C89.2418 18.6953 89.1385 18.868 89.0751 19.0568C89.0117 19.2456 88.9897 19.4458 89.0108 19.6439V23.1673H87.8254L87.8254 17.1446Z" fill="white"/>
<path d="M94.8141 14.7935H95.9994V23.1673H94.8141V14.7935Z" fill="white"/>
<path d="M97.6479 20.1533C97.6102 19.7575 97.6554 19.3582 97.7806 18.9809C97.9058 18.6036 98.1082 18.2567 98.375 17.9625C98.6417 17.6682 98.9668 17.4331 99.3294 17.2723C99.692 17.1114 100.084 17.0283 100.481 17.0283C100.877 17.0283 101.269 17.1114 101.632 17.2723C101.995 17.4331 102.32 17.6682 102.586 17.9625C102.853 18.2567 103.056 18.6036 103.181 18.9809C103.306 19.3582 103.351 19.7575 103.313 20.1533C103.352 20.5496 103.307 20.9494 103.182 21.3273C103.057 21.7052 102.855 22.0527 102.588 22.3475C102.322 22.6423 101.996 22.8779 101.633 23.0391C101.27 23.2003 100.878 23.2836 100.481 23.2836C100.084 23.2836 99.6911 23.2003 99.3281 23.0391C98.9651 22.8779 98.6398 22.6423 98.373 22.3475C98.1063 22.0527 97.9039 21.7052 97.7791 21.3273C97.6542 20.9494 97.6095 20.5496 97.6479 20.1533ZM102.094 20.1533C102.094 18.8478 101.509 18.0844 100.482 18.0844C99.452 18.0844 98.8724 18.8478 98.8724 20.1533C98.8724 21.4693 99.452 22.2269 100.482 22.2269C101.509 22.2269 102.094 21.4641 102.094 20.1533H102.094Z" fill="white"/>
<path d="M104.562 21.464C104.562 20.3799 105.367 19.7549 106.796 19.6661L108.422 19.572V19.0522C108.422 18.4161 108.003 18.0569 107.193 18.0569C106.531 18.0569 106.073 18.3005 105.941 18.7263H104.794C104.915 17.6918 105.885 17.0283 107.248 17.0283C108.753 17.0283 109.603 17.78 109.603 19.0522V23.1673H108.462V22.3209H108.368C108.177 22.6245 107.91 22.872 107.593 23.0381C107.276 23.2042 106.921 23.2831 106.564 23.2665C106.312 23.2928 106.057 23.2658 105.816 23.1873C105.575 23.1088 105.353 22.9805 105.164 22.8107C104.975 22.6408 104.824 22.4333 104.721 22.2013C104.617 21.9694 104.563 21.7182 104.562 21.464ZM108.422 20.9494V20.4459L106.956 20.5399C106.129 20.5954 105.754 20.8775 105.754 21.4085C105.754 21.9505 106.222 22.266 106.867 22.266C107.056 22.2852 107.247 22.266 107.428 22.2097C107.61 22.1534 107.778 22.0611 107.923 21.9383C108.068 21.8155 108.187 21.6646 108.273 21.4947C108.359 21.3248 108.41 21.1394 108.422 20.9494Z" fill="white"/>
<path d="M111.16 20.1534C111.16 18.2503 112.136 17.0447 113.653 17.0447C114.029 17.0274 114.401 17.1175 114.727 17.3046C115.053 17.4918 115.32 17.7681 115.495 18.1014H115.584V14.7935H116.769V23.1673H115.633V22.2158H115.539C115.351 22.5468 115.075 22.8197 114.742 23.0049C114.41 23.1902 114.033 23.2806 113.653 23.2666C112.125 23.2667 111.16 22.061 111.16 20.1534ZM112.385 20.1534C112.385 21.4308 112.985 22.1995 113.989 22.1995C114.988 22.1995 115.606 21.4197 115.606 20.1586C115.606 18.9034 114.982 18.1125 113.989 18.1125C112.992 18.1125 112.385 18.8864 112.385 20.1534H112.385Z" fill="white"/>
<path d="M121.673 20.1532C121.635 19.7574 121.68 19.3581 121.806 18.9808C121.931 18.6035 122.133 18.2567 122.4 17.9624C122.667 17.6682 122.992 17.4331 123.354 17.2723C123.717 17.1114 124.109 17.0283 124.505 17.0283C124.902 17.0283 125.294 17.1114 125.657 17.2723C126.019 17.4331 126.344 17.6682 126.611 17.9624C126.878 18.2567 127.08 18.6035 127.205 18.9808C127.33 19.3581 127.376 19.7574 127.338 20.1532C127.376 20.5494 127.332 20.9493 127.207 21.3272C127.082 21.7051 126.88 22.0526 126.613 22.3474C126.346 22.6422 126.021 22.8778 125.658 23.039C125.295 23.2002 124.902 23.2835 124.505 23.2835C124.108 23.2835 123.716 23.2002 123.353 23.039C122.99 22.8778 122.665 22.6422 122.398 22.3474C122.131 22.0526 121.929 21.7051 121.804 21.3272C121.679 20.9493 121.635 20.5494 121.673 20.1532ZM126.119 20.1532C126.119 18.8477 125.534 18.0843 124.507 18.0843C123.477 18.0843 122.898 18.8477 122.898 20.1532C122.898 21.4692 123.477 22.2268 124.507 22.2268C125.534 22.2268 126.119 21.464 126.119 20.1532Z" fill="white"/>
<path d="M128.927 17.1446H130.068V18.1013H130.157C130.307 17.7577 130.561 17.4696 130.882 17.2773C131.203 17.085 131.576 16.9979 131.949 17.0283C132.241 17.0063 132.535 17.0505 132.808 17.1576C133.081 17.2647 133.326 17.4321 133.526 17.6472C133.725 17.8623 133.874 18.1197 133.961 18.4004C134.048 18.681 134.071 18.9777 134.028 19.2684V23.1672H132.843V19.5669C132.843 18.599 132.423 18.1177 131.547 18.1177C131.348 18.1084 131.15 18.1423 130.966 18.2169C130.782 18.2916 130.616 18.4053 130.48 18.5503C130.344 18.6953 130.24 18.868 130.177 19.0568C130.114 19.2456 130.092 19.4458 130.113 19.6439V23.1673H128.927V17.1446Z" fill="white"/>
<path d="M140.728 15.6446V17.1715H142.029V18.1727H140.728V21.2696C140.728 21.9005 140.987 22.1768 141.577 22.1768C141.728 22.1763 141.879 22.1671 142.029 22.1493V23.1394C141.816 23.1776 141.6 23.1979 141.384 23.2001C140.066 23.2001 139.541 22.7351 139.541 21.574V18.1727H138.587V17.1715H139.541V15.6446H140.728Z" fill="white"/>
<path d="M143.645 14.7935H144.819V18.1125H144.913C145.071 17.7657 145.331 17.476 145.659 17.2829C145.987 17.0898 146.366 17.0028 146.745 17.0336C147.035 17.0177 147.326 17.0664 147.596 17.1762C147.865 17.2859 148.108 17.454 148.305 17.6684C148.503 17.8829 148.651 18.1384 148.739 18.4168C148.826 18.6952 148.852 18.9895 148.813 19.2789V23.1674H147.626V19.5721C147.626 18.6101 147.18 18.1229 146.342 18.1229C146.138 18.1062 145.933 18.1343 145.742 18.2052C145.55 18.2762 145.376 18.3883 145.232 18.5337C145.088 18.6792 144.977 18.8544 144.908 19.0472C144.838 19.24 144.812 19.4457 144.83 19.6498V23.1673H143.645L143.645 14.7935Z" fill="white"/>
<path d="M155.726 21.5412C155.565 22.0916 155.216 22.5678 154.74 22.8863C154.264 23.2048 153.692 23.3455 153.123 23.2836C152.728 23.2941 152.335 23.2181 151.971 23.0609C151.608 22.9037 151.283 22.6691 151.019 22.3733C150.755 22.0775 150.558 21.7277 150.442 21.3481C150.327 20.9684 150.295 20.5681 150.349 20.1749C150.296 19.7805 150.329 19.3794 150.444 18.9986C150.559 18.6179 150.755 18.2664 151.018 17.968C151.28 17.6697 151.604 17.4314 151.966 17.2693C152.328 17.1071 152.721 17.025 153.118 17.0284C154.789 17.0284 155.798 18.1733 155.798 20.0645V20.4793H151.556V20.5459C151.538 20.7669 151.566 20.9894 151.638 21.199C151.71 21.4087 151.825 21.6009 151.976 21.7634C152.126 21.9258 152.309 22.0549 152.512 22.1424C152.716 22.2298 152.935 22.2738 153.156 22.2713C153.44 22.3054 153.727 22.2542 153.981 22.1242C154.236 21.9942 154.446 21.7912 154.585 21.5411L155.726 21.5412ZM151.556 19.6002H154.59C154.605 19.3981 154.578 19.1951 154.51 19.0042C154.442 18.8133 154.335 18.6388 154.195 18.4918C154.056 18.3449 153.888 18.2288 153.701 18.151C153.515 18.0732 153.314 18.0354 153.112 18.04C152.907 18.0374 152.703 18.076 152.513 18.1535C152.323 18.231 152.151 18.3459 152.006 18.4913C151.861 18.6367 151.747 18.8097 151.669 19.0002C151.592 19.1906 151.554 19.3947 151.556 19.6002H151.556Z" fill="white"/>
</g>
<defs>
<filter id="filter0_d_8_257" x="0.891083" y="0.447083" width="186.546" height="71.5277" filterUnits="userSpaceOnUse" color-interpolation-filters="sRGB">
<feFlood flood-opacity="0" result="BackgroundImageFix"/>
<feColorMatrix in="SourceAlpha" type="matrix" values="0 0 0 0 0 0 0 0 0 0 0 0 0 0 0 0 0 0 127 0" result="hardAlpha"/>
<feOffset dy="5"/>
<feGaussianBlur stdDeviation="5.5"/>
<feComposite in2="hardAlpha" operator="out"/>
<feColorMatrix type="matrix" values="0 0 0 0 0 0 0 0 0 0 0 0 0 0 0 0 0 0 0.26 0"/>
<feBlend mode="normal" in2="BackgroundImageFix" result="effect1_dropShadow_8_257"/>
<feBlend mode="normal" in="SourceGraphic" in2="effect1_dropShadow_8_257" result="shape"/>
</filter>
</defs>
</svg>
