<svg width="94" height="95" viewBox="0 0 94 95" fill="none" xmlns="http://www.w3.org/2000/svg">
<path d="M40.9355 82.2429H39.266C38.5614 78.788 35.5003 76.1783 31.8387 76.1783H27.2903V71.1674C27.2903 67.6575 27.9906 64.2419 29.372 61.0186L29.5097 60.7002C31.0547 57.0922 31.8387 53.2744 31.8387 49.3506V47.3719C31.8387 44.4759 30.694 41.7717 28.6169 39.7551C26.5398 37.7399 23.8339 36.6665 20.9 36.7634C15.2278 36.9352 10.6129 41.864 10.6129 47.7524V49.3506C10.6129 53.2729 11.3969 57.092 12.9434 60.7017L13.0779 61.014C14.4612 64.2403 15.1613 67.656 15.1613 71.1675V76.1783H10.6129C6.95278 76.1783 3.8902 78.788 3.18558 82.2429H1.51613C0.677331 82.2429 0 82.9225 0 83.759V92.8558C0 93.6923 0.677331 94.3719 1.51613 94.3719H40.9355C41.7743 94.3719 42.4516 93.6923 42.4516 92.8558V83.759C42.4516 82.9225 41.7743 82.2429 40.9355 82.2429ZM13.6452 49.3506V47.7524C13.6452 43.4861 16.9408 39.9156 20.9927 39.7943C23.0647 39.7408 25.0205 40.4917 26.5048 41.9307C27.9893 43.3706 28.8064 45.3043 28.8064 47.3719V49.3506C28.8064 52.8605 28.1062 56.2761 26.7248 59.4994L26.587 59.8193C25.1797 63.1002 24.4387 66.5619 24.3113 70.1138H18.1405C18.0116 66.5634 17.2706 63.1002 15.8633 59.8163L15.7287 59.504C14.3452 56.2776 13.6452 52.862 13.6452 49.3504V49.3506ZM18.1935 73.1461H24.2581V76.1783H18.1935V73.1461ZM10.6129 79.2106H31.8387C33.8123 79.2106 35.4803 80.4823 36.1079 82.2429H6.34367C6.97135 80.4823 8.63928 79.2106 10.6129 79.2106ZM39.4193 91.3396H3.03226V85.2751H39.4193V91.3396Z" fill="#141C28"/>
<path d="M93.5543 15.9758L87.9355 10.3571V1.88796C87.9355 1.05143 87.2581 0.371826 86.4193 0.371826H37.9032C37.0644 0.371826 36.3871 1.05143 36.3871 1.88796V71.6299C36.3871 72.4664 37.0644 73.146 37.9032 73.146H42.4516V77.6944C42.4516 78.5309 43.1289 79.2105 43.9677 79.2105H92.4839C93.3227 79.2105 94 78.5309 94 77.6944V17.0492C94.0004 16.8497 93.9613 16.6521 93.8848 16.4678C93.8082 16.2836 93.6959 16.1163 93.5543 15.9758ZM84.9032 11.6126L88.8239 15.5331H84.9032V11.6126ZM42.4516 7.95247V70.1138H39.4193V3.40408H84.9032V7.32479L84.4605 6.88208C84.32 6.74044 84.1528 6.6281 83.9685 6.55158C83.7842 6.47507 83.5866 6.43589 83.3871 6.43634H43.9677C43.1289 6.43634 42.4516 7.11595 42.4516 7.95247ZM90.9677 76.1783H45.4839V9.4686H81.871V17.0492C81.871 17.8858 82.5483 18.5654 83.3871 18.5654H90.9677V76.1783Z" fill="#F95E19"/>
<path d="M50.0322 24.63H77.3226C78.1614 24.63 78.8387 23.9504 78.8387 23.1139V14.0171C78.8387 13.1806 78.1614 12.501 77.3226 12.501H50.0322C49.1934 12.501 48.5161 13.1806 48.5161 14.0171V23.1139C48.5161 23.9504 49.1934 24.63 50.0322 24.63ZM51.5484 15.5332H75.8064V21.5978H51.5484V15.5332ZM48.5161 27.6623H87.9355V30.6945H48.5161V27.6623ZM48.5161 33.7268H87.9355V36.759H48.5161V33.7268ZM78.9732 47.8738L77.0679 45.014L74.545 46.6961L77.5773 51.2445C77.708 51.4406 77.8827 51.6035 78.0873 51.7203C78.292 51.8371 78.5211 51.9045 78.7564 51.9173C78.7854 51.9203 78.8114 51.9203 78.8387 51.9203C79.0611 51.9204 79.2809 51.8715 79.4823 51.7772C79.6838 51.6829 79.8621 51.5455 80.0046 51.3747L87.5852 42.2779L85.2548 40.3369L78.9732 47.8738ZM78.9732 58.4867L77.0679 55.6269L74.545 57.309L77.5773 61.8574C77.708 62.0535 77.8827 62.2164 78.0873 62.3332C78.292 62.45 78.5211 62.5174 78.7564 62.5302C78.7854 62.5332 78.8114 62.5332 78.8387 62.5332C79.0611 62.5333 79.2809 62.4844 79.4823 62.3901C79.6838 62.2958 79.8621 62.1584 80.0046 61.9876L87.5852 52.8908L85.2548 50.9498L78.9732 58.4867ZM78.9732 69.0996L77.0679 66.2398L74.545 67.9219L77.5773 72.4703C77.708 72.6664 77.8827 72.8293 78.0873 72.9461C78.292 73.0629 78.5211 73.1303 78.7564 73.1431C78.7854 73.1461 78.8114 73.1461 78.8387 73.1461C79.0611 73.1462 79.2809 73.0973 79.4823 73.003C79.6838 72.9087 79.8621 72.7713 80.0046 72.6005L87.5852 63.5037L85.2548 61.5627L78.9732 69.0996ZM48.5161 70.1139H72.7742V73.1461H48.5161V70.1139ZM48.5161 59.501H72.7742V62.5332H48.5161V59.501ZM48.5161 48.8881H72.7742V51.9203H48.5161V48.8881Z" fill="#F95E19"/>
</svg>
