<svg width="34" height="41" viewBox="0 0 34 41" fill="none" xmlns="http://www.w3.org/2000/svg">
<path d="M25.0355 23.2887C23.8995 21.227 22.006 19.586 19.776 18.7024C18.0087 20.4275 15.6945 21.4374 13.1279 21.4374C10.5612 21.4374 8.247 20.3855 6.52186 18.7024C2.6929 20.1751 0 23.8778 0 28.1696V31.704C0 32.2931 0.462841 32.798 1.09399 32.798H16.6623C16.6623 27.9592 20.323 23.8778 25.0355 23.2887Z" fill="#F95E19"/>
<path d="M5.42792 11.0024C5.42792 15.5888 8.87819 19.3336 13.1279 19.3336C17.3776 19.3336 20.8279 15.5888 20.8279 11.0024C20.8279 10.5396 20.8279 10.1188 20.7858 9.69805C22.0061 6.07947 21.417 -0.568619 19.0607 0.483294C16.999 1.3669 5.76453 -1.4943 6.43776 3.26034C3.78694 3.3445 5.17546 8.56198 5.47 9.69805C5.47 10.1188 5.42792 10.5817 5.42792 11.0024ZM7.78421 11.2549C8.07874 11.2549 8.28912 11.0445 8.28912 10.75C8.16289 9.52974 7.91044 6.37401 9.00442 6.66854C10.3509 7.00515 11.8656 7.42592 13.17 7.42592C14.5164 7.42592 15.9891 7.00515 17.3356 6.66854C18.4296 6.37401 18.1771 9.48767 18.0509 10.75C18.0088 11.0445 18.2613 11.2549 18.5558 11.2549L19.0186 11.2128C18.9345 14.6631 16.3678 17.4401 13.2121 17.4401C10.0563 17.4401 7.48967 14.6631 7.40552 11.2128L7.78421 11.2549Z" fill="#F95E19"/>
<path d="M26.2978 25.3083C22.1322 25.3083 18.7661 28.6745 18.7661 32.84C18.7661 37.0056 22.1322 40.3717 26.2978 40.3717C30.4634 40.3717 33.8295 37.0056 33.8295 32.84C33.8295 28.6745 30.4634 25.3083 26.2978 25.3083ZM29.5798 33.8499H27.3497V36.0799C27.3497 36.669 26.8869 37.1318 26.2978 37.1318C25.7087 37.1318 25.2459 36.669 25.2459 36.0799V33.8499H23.0158C22.4268 33.8499 21.9639 33.387 21.9639 32.798C21.9639 32.2089 22.4268 31.7461 23.0158 31.7461H25.2459V29.516C25.2459 28.9269 25.7087 28.4641 26.2978 28.4641C26.8869 28.4641 27.3497 28.9269 27.3497 29.516V31.7461H29.5798C30.1688 31.7461 30.6317 32.2089 30.6317 32.798C30.6317 33.387 30.1268 33.8499 29.5798 33.8499Z" fill="#F95E19"/>
</svg>
