<svg width="21" height="23" viewBox="0 0 21 23" fill="none" xmlns="http://www.w3.org/2000/svg">
<path d="M10.343 23C9.84074 23.0006 9.34726 22.8685 8.91245 22.6171L1.42951 18.2973C0.995205 18.0459 0.634555 17.6849 0.383673 17.2503C0.132792 16.8158 0.000484566 16.3229 0 15.8211V7.18045C0.000613236 6.67855 0.132966 6.18561 0.383825 5.7509C0.634685 5.3162 0.995263 4.95496 1.42951 4.7033L8.91245 0.383463C9.34735 0.132255 9.84073 0 10.343 0C10.8452 0 11.3386 0.132255 11.7735 0.383463L19.2554 4.7033C19.6899 4.95473 20.0506 5.31591 20.3015 5.75067C20.5524 6.18543 20.6846 6.67849 20.6849 7.18045V15.8211C20.6843 16.323 20.552 16.816 20.3011 17.2507C20.0502 17.6854 19.6897 18.0466 19.2554 18.2983L11.7725 22.6171C11.338 22.8684 10.8449 23.0005 10.343 23ZM10.343 1.01184C10.0182 1.01144 9.69909 1.09645 9.41758 1.25834L1.93463 5.57818C1.65383 5.74102 1.42067 5.97469 1.25845 6.25586C1.09624 6.53703 1.01066 6.85584 1.01025 7.18045V15.8211C1.01053 16.1456 1.09607 16.4644 1.2583 16.7454C1.42054 17.0264 1.65377 17.2599 1.93463 17.4224L9.41758 21.7432C9.69895 21.9051 10.0179 21.9903 10.3425 21.9903C10.6671 21.9903 10.986 21.9051 11.2674 21.7432L18.7503 17.4234C19.0311 17.2606 19.2643 17.0269 19.4265 16.7457C19.5887 16.4646 19.6743 16.1457 19.6747 15.8211V7.18045C19.6744 6.85595 19.5889 6.53723 19.4266 6.2562C19.2644 5.97517 19.0312 5.74171 18.7503 5.57919L11.2674 1.25834C10.9862 1.09645 10.6674 1.01143 10.343 1.01184Z" fill="white"/>
<path d="M16.4682 7.00468L11.1734 3.94766C10.9208 3.8017 10.6342 3.72485 10.3425 3.72485C10.0507 3.72485 9.76415 3.8017 9.51155 3.94766L4.21681 7.00468C3.9641 7.15059 3.75422 7.36043 3.60828 7.61313C3.46234 7.86583 3.38546 8.15248 3.38538 8.44429V14.5573C3.38546 14.8492 3.46234 15.1358 3.60828 15.3885C3.75422 15.6412 3.9641 15.851 4.21681 15.9969L9.51155 19.054C9.76415 19.1999 10.0507 19.2768 10.3425 19.2768C10.6342 19.2768 10.9208 19.1999 11.1734 19.054L16.4682 15.9969C16.7209 15.851 16.9307 15.6412 17.0767 15.3885C17.2226 15.1358 17.2995 14.8492 17.2996 14.5573V8.44429C17.2995 8.15248 17.2226 7.86583 17.0767 7.61313C16.9307 7.36043 16.7209 7.15059 16.4682 7.00468ZM8.34471 9.84754C8.41507 9.77713 8.49862 9.72127 8.59058 9.68316C8.68254 9.64506 8.78111 9.62544 8.88065 9.62544C8.98019 9.62544 9.07876 9.64506 9.17072 9.68316C9.26267 9.72127 9.34622 9.77713 9.41659 9.84754L9.5853 10.0162V8.61301C9.5853 8.41205 9.66513 8.21933 9.80722 8.07724C9.94932 7.93514 10.142 7.85532 10.343 7.85532C10.5439 7.85532 10.7367 7.93514 10.8788 8.07724C11.0209 8.21933 11.1007 8.41205 11.1007 8.61301V10.0162L11.2694 9.84754C11.413 9.7137 11.603 9.64083 11.7993 9.6443C11.9956 9.64776 12.1829 9.72728 12.3217 9.8661C12.4605 10.0049 12.54 10.1922 12.5435 10.3885C12.547 10.5848 12.4741 10.7748 12.3403 10.9184L10.8784 12.3812C10.7355 12.522 10.543 12.6009 10.3425 12.6009C10.1419 12.6009 9.94943 12.522 9.80654 12.3812L8.34471 10.9184C8.27433 10.8481 8.2185 10.7647 8.1804 10.6728C8.14231 10.5809 8.1227 10.4824 8.1227 10.383C8.1227 10.2835 8.14231 10.185 8.1804 10.0932C8.2185 10.0013 8.27433 9.91781 8.34471 9.84754ZM13.1656 13.5249C13.1477 13.9712 12.9539 14.3924 12.6264 14.6962C12.2988 15.0001 11.8644 15.1619 11.4179 15.1463H9.26707C8.8206 15.1619 8.38612 15.0001 8.05861 14.6962C7.73111 14.3924 7.53722 13.9712 7.51933 13.5249V13.0116C7.51933 12.8107 7.59916 12.618 7.74125 12.4759C7.88335 12.3338 8.07607 12.254 8.27702 12.254C8.47797 12.254 8.67069 12.3338 8.81279 12.4759C8.95488 12.618 9.03471 12.8107 9.03471 13.0116V13.3996C9.03237 13.4568 9.05199 13.5127 9.08956 13.5559C9.12713 13.5991 9.17979 13.6263 9.23676 13.6319H11.4472C11.4758 13.6302 11.5037 13.6227 11.5294 13.61C11.5551 13.5973 11.578 13.5797 11.5968 13.558C11.6156 13.5364 11.6299 13.5113 11.6389 13.4841C11.6479 13.4569 11.6514 13.4282 11.6492 13.3996V13.0116C11.6492 12.8107 11.7291 12.618 11.8712 12.4759C12.0133 12.3338 12.206 12.254 12.4069 12.254C12.6079 12.254 12.8006 12.3338 12.9427 12.4759C13.0848 12.618 13.1646 12.8107 13.1646 13.0116L13.1656 13.5249Z" fill="white"/>
</svg>
