<svg width="94" height="95" viewBox="0 0 94 95" fill="none" xmlns="http://www.w3.org/2000/svg">
<g clip-path="url(#clip0_2396_119)">
<path d="M62.6154 39.6259C64.1816 38.0757 65.1538 35.9265 65.1538 33.5539C65.1538 28.8414 61.319 25.0076 56.6056 25.0076C52.9735 25.0076 49.7544 27.31 48.5524 30.684C48.0486 30.5911 47.5303 30.54 46.9999 30.54C46.4695 30.54 45.9514 30.5911 45.4474 30.684C44.2454 27.3098 41.0261 25.0076 37.3942 25.0076C32.6808 25.0076 28.8461 28.8414 28.8461 33.5539C28.8461 35.9265 29.8184 38.0757 31.3846 39.6259C27.6275 41.7661 25.2089 45.8188 25.2089 50.2263C25.2089 50.987 25.8254 51.6033 26.5858 51.6033C27.3463 51.6033 27.9628 50.987 27.9628 50.2263C27.9628 46.3336 30.4 42.7986 34.0326 41.4123C35.5813 42.0775 37.2927 42.2672 38.9495 41.9574C39.3815 43.1632 40.0783 44.2567 40.9887 45.1577C39.1125 46.2192 37.5521 47.7603 36.4673 49.6232C35.3825 51.486 34.8123 53.6037 34.8149 55.7593C34.8149 56.52 35.4314 57.1363 36.1919 57.1363C36.9523 57.1363 37.5688 56.52 37.5688 55.7593C37.5666 53.9045 38.1121 52.0903 39.1369 50.5443C40.1617 48.9982 41.6201 47.7892 43.3293 47.0687C43.4229 47.029 43.5094 46.9796 43.5891 46.9233C44.6646 47.3938 45.826 47.6363 46.9999 47.6354C48.1933 47.6354 49.3297 47.3889 50.3623 46.9453C53.9932 48.3316 56.431 51.8702 56.431 55.7593C56.431 56.52 57.0475 57.1363 57.808 57.1363C58.5684 57.1363 59.1849 56.52 59.1849 55.7593C59.1849 51.3558 56.7657 47.2998 53.0097 45.1589C53.9208 44.2578 54.6181 43.1638 55.0504 41.9574C56.707 42.2673 58.4185 42.0776 59.967 41.4123C63.5996 42.7986 66.0369 46.3332 66.0369 50.2263C66.0369 50.987 66.6534 51.6033 67.4138 51.6033C68.1743 51.6033 68.7908 50.987 68.7908 50.2263C68.7911 45.8186 66.3725 41.7661 62.6154 39.6259ZM38.4525 39.0878C38.4525 39.142 38.4556 39.1952 38.4565 39.249C38.1097 39.3136 37.7544 39.3482 37.3944 39.3482C34.1995 39.3482 31.6002 36.749 31.6002 33.5539C31.6002 30.3601 34.1995 27.7615 37.3944 27.7615C39.8594 27.7615 42.0429 29.3255 42.8554 31.6157C40.2319 33.0767 38.4525 35.8779 38.4525 39.0878ZM41.2064 39.0878C41.2064 35.8933 43.8054 33.2941 47.0001 33.2941C50.1948 33.2941 52.7938 35.8931 52.7938 39.0878C52.7938 42.2826 50.1948 44.8815 47.0001 44.8815C43.8054 44.8815 41.2064 42.2824 41.2064 39.0878ZM55.5435 39.249C55.5444 39.1952 55.5475 39.1418 55.5475 39.0878C55.5475 35.8779 53.7681 33.0769 51.1446 31.6159C51.9572 29.3257 54.1406 27.7617 56.6056 27.7617C59.8005 27.7617 62.3998 30.3601 62.3998 33.5541C62.3998 36.749 59.8005 39.3483 56.6056 39.3483C56.2493 39.3479 55.8937 39.3146 55.5435 39.249Z" fill="#141C28"/>
<path d="M82.6597 59.8817V34.8528C86.092 34.205 88.6968 31.186 88.6968 27.5683C88.6968 23.4796 85.3706 20.1534 81.282 20.1534C79.035 20.1534 77.0196 21.1595 75.6588 22.7432L53.997 10.2358C54.2737 9.44879 54.4149 8.62055 54.4147 7.7863C54.4147 3.69801 51.0885 0.371826 47.0001 0.371826C42.9116 0.371826 39.5852 3.69801 39.5852 7.78649C39.5852 8.64479 39.7334 9.46858 40.0029 10.236L18.3411 22.7432C16.9803 21.1595 14.965 20.1534 12.7179 20.1534C8.62929 20.1534 5.3031 23.4796 5.3031 27.5683C5.3031 31.186 7.90794 34.2049 11.3402 34.8528V59.8817C7.90794 60.5294 5.3031 63.5485 5.3031 67.1662C5.3031 71.2549 8.62929 74.581 12.7179 74.581C14.9615 74.581 16.9739 73.5781 18.3347 71.9988L40.0027 84.5084C39.7261 85.2952 39.585 86.1232 39.5852 86.9572C39.5852 91.0458 42.9114 94.372 47.0001 94.372C51.0887 94.372 54.4149 91.0458 54.4149 86.9572C54.4149 86.0992 54.2667 85.2754 53.9974 84.5084L75.6654 71.9988C77.0263 73.5782 79.0386 74.581 81.2822 74.581C85.3708 74.581 88.697 71.2549 88.697 67.1662C88.6968 63.5483 86.0918 60.5294 82.6597 59.8817ZM81.282 22.9074C83.8519 22.9074 85.9429 24.9983 85.9429 27.5683C85.9429 30.1382 83.8519 32.2292 81.282 32.2292C78.712 32.2292 76.6211 30.1382 76.6211 27.5683C76.6211 24.9983 78.712 22.9074 81.282 22.9074ZM47.0001 3.12575C49.57 3.12575 51.661 5.21653 51.661 7.78649C51.661 10.3541 49.5739 12.4434 47.0072 12.4472L47.0001 12.4469L46.9929 12.4472C44.4262 12.4434 42.3391 10.3541 42.3391 7.78649C42.3391 5.21653 44.4299 3.12575 47.0001 3.12575ZM8.05702 27.5683C8.05702 24.9983 10.148 22.9074 12.7179 22.9074C15.2879 22.9074 17.3789 24.9983 17.3789 27.5683C17.3789 30.1382 15.2879 32.2292 12.7179 32.2292C10.148 32.2292 8.05702 30.1382 8.05702 27.5683ZM12.7179 71.8269C10.148 71.8269 8.05702 69.736 8.05702 67.166C8.05702 64.596 10.148 62.5051 12.7179 62.5051C15.2879 62.5051 17.3789 64.596 17.3789 67.166C17.3789 69.736 15.2879 71.8269 12.7179 71.8269ZM47.0001 91.6179C44.4301 91.6179 42.3391 89.5269 42.3391 86.957C42.3391 84.387 44.4301 82.2961 47.0001 82.2961C49.57 82.2961 51.661 84.387 51.661 86.957C51.661 89.5269 49.57 91.6179 47.0001 91.6179ZM52.6171 82.1251C51.5418 80.8767 50.0593 79.9897 48.3768 79.6725V74.3677C48.3768 73.6071 47.7603 72.9907 46.9999 72.9907C46.2394 72.9907 45.6229 73.6071 45.6229 74.3677V79.6725C43.9406 79.9899 42.4581 80.8767 41.3826 82.1251L19.7149 69.6157C19.9917 68.8287 20.1329 68.0004 20.1326 67.1662C20.1326 66.3072 19.9841 65.4824 19.7142 64.7145L24.3096 62.0606C24.6207 61.8754 24.8463 61.5751 24.9376 61.2247C25.029 60.8744 24.9787 60.5021 24.7976 60.1886C24.6165 59.8751 24.3192 59.6455 23.9701 59.5495C23.621 59.4535 23.2482 59.4988 22.9322 59.6757L18.3328 62.332C17.2575 61.0846 15.7755 60.1986 14.094 59.8815V34.853C15.7761 34.5359 17.2584 33.6493 18.3337 32.4014L22.9394 35.0611C23.096 35.1516 23.2688 35.2104 23.4481 35.234C23.6274 35.2577 23.8096 35.2458 23.9843 35.199C24.1589 35.1522 24.3227 35.0715 24.4661 34.9614C24.6096 34.8513 24.73 34.714 24.8203 34.5574C24.9108 34.4008 24.9695 34.2279 24.9931 34.0486C25.0168 33.8693 25.0048 33.6871 24.9581 33.5125C24.9113 33.3378 24.8305 33.174 24.7205 33.0306C24.6104 32.8871 24.4731 32.7667 24.3165 32.6763L19.7144 30.0185C19.9912 29.2313 20.1325 28.4028 20.1322 27.5683C20.1325 26.7373 19.9923 25.9123 19.7177 25.1281L41.3826 12.6189C42.4579 13.867 43.9403 14.7537 45.6224 15.071V20.3763C45.6224 21.137 46.2389 21.7533 46.9993 21.7533C47.7598 21.7533 48.3763 21.137 48.3763 20.3763V15.071C50.0584 14.7537 51.5407 13.867 52.616 12.6189L74.281 25.1281C74.0064 25.9124 73.8662 26.7374 73.8664 27.5683C73.8664 28.4268 74.0147 29.2509 74.2843 30.0185L69.6821 32.6763C69.3658 32.8589 69.1351 33.1596 69.0406 33.5124C68.9461 33.8652 68.9956 34.241 69.1782 34.5573C69.3608 34.8735 69.6616 35.1043 70.0144 35.1988C70.3671 35.2933 70.743 35.2438 71.0592 35.0611L75.6649 32.4014C76.7404 33.6493 78.2227 34.5359 79.9046 34.853V59.8815C78.2231 60.1986 76.7413 61.0846 75.6658 62.332L71.0664 59.6757C70.9098 59.5853 70.7369 59.5266 70.5576 59.5029C70.3784 59.4793 70.1962 59.4912 70.0215 59.538C69.8468 59.5848 69.6831 59.6655 69.5396 59.7756C69.3961 59.8856 69.2757 60.0229 69.1853 60.1795C69.0948 60.3361 69.0361 60.509 69.0125 60.6882C68.9889 60.8675 69.0008 61.0497 69.0476 61.2244C69.0944 61.3991 69.1751 61.5628 69.2852 61.7063C69.3952 61.8498 69.5325 61.9702 69.6891 62.0606L74.2844 64.7145C74.0073 65.5022 73.8658 66.3312 73.866 67.1662C73.866 68.0245 74.0142 68.8485 74.2837 69.6157L52.6171 82.1251ZM81.282 71.8269C78.712 71.8269 76.6211 69.736 76.6211 67.166C76.6211 64.596 78.712 62.5051 81.282 62.5051C83.8519 62.5051 85.9429 64.596 85.9429 67.166C85.9429 69.736 83.8519 71.8269 81.282 71.8269Z" fill="#F95E19"/>
<path d="M58.533 61.5989H54.4352C53.6747 61.5989 53.0582 62.2152 53.0582 62.9758C53.0582 63.7365 53.6747 64.3528 54.4352 64.3528H58.533C59.2934 64.3528 59.9099 63.7365 59.9099 62.9758C59.9099 62.2152 59.2934 61.5989 58.533 61.5989ZM58.533 66.9919H35.4668C34.7064 66.9919 34.0898 67.6083 34.0898 68.3689C34.0898 69.1295 34.7064 69.7458 35.4668 69.7458H58.5331C58.714 69.7458 58.893 69.7102 59.0601 69.641C59.2271 69.5718 59.3789 69.4704 59.5068 69.3425C59.6346 69.2146 59.736 69.0628 59.8052 68.8957C59.8744 68.7287 59.91 68.5496 59.91 68.3688C59.91 68.188 59.8744 68.0089 59.8052 67.8419C59.736 67.6748 59.6345 67.523 59.5066 67.3952C59.3788 67.2673 59.227 67.1659 59.0599 67.0967C58.8928 67.0275 58.7138 66.9919 58.533 66.9919ZM35.4668 64.3528H35.4859C36.2463 64.3528 36.8628 63.7365 36.8628 62.9758C36.8628 62.2152 36.2463 61.5989 35.4859 61.5989H35.4668C34.7064 61.5989 34.0898 62.2152 34.0898 62.9758C34.0898 63.7365 34.7064 64.3528 35.4668 64.3528ZM40.2553 64.3528C41.0157 64.3528 41.6322 63.7365 41.6322 62.9758C41.6322 62.2152 41.0157 61.5989 40.2553 61.5989H40.2362C39.4758 61.5989 38.8592 62.2152 38.8592 62.9758C38.8592 63.7365 39.4758 64.3528 40.2362 64.3528H40.2553ZM45.0247 64.3528C45.7851 64.3528 46.4016 63.7365 46.4016 62.9758C46.4016 62.2152 45.7851 61.5989 45.0247 61.5989H45.0056C44.2451 61.5989 43.6286 62.2152 43.6286 62.9758C43.6286 63.7365 44.2451 64.3528 45.0056 64.3528H45.0247Z" fill="#F95E19"/>
</g>
<defs>
<clipPath id="clip0_2396_119">
<rect width="94" height="94" fill="white" transform="translate(0 0.371826)"/>
</clipPath>
</defs>
</svg>
