<svg width="120" height="120" viewBox="0 0 120 120" fill="none" xmlns="http://www.w3.org/2000/svg">
<g filter="url(#filter0_d_49_570)">
<circle cx="60" cy="52" r="45" fill="white"/>
</g>
<circle cx="60" cy="52" r="38" fill="#F95E19"/>
<g filter="url(#filter1_d_49_570)">
<path d="M73.5928 52.3032H62.3032C57.7158 52.2979 53.3177 50.4731 50.0739 47.2293C46.8301 43.9855 45.0053 39.5875 45 35H52.8866C52.8896 37.4965 53.8827 39.8899 55.648 41.6552C57.4133 43.4205 59.8067 44.4136 62.3032 44.4166H65.7062V35H73.5928V52.3032Z" fill="white"/>
<path d="M74.7655 69.2666H66.879C66.8759 66.7701 65.8828 64.3767 64.1175 62.6114C62.3522 60.8461 59.9588 59.853 57.4623 59.85H54.0593V69.2551H46.1727V51.9663H57.4623C62.0493 51.9716 66.4469 53.796 69.6906 57.0392C72.9344 60.2824 74.7594 64.6797 74.7655 69.2666Z" fill="white"/>
</g>
<defs>
<filter id="filter0_d_49_570" x="0" y="0" width="120" height="120" filterUnits="userSpaceOnUse" color-interpolation-filters="sRGB">
<feFlood flood-opacity="0" result="BackgroundImageFix"/>
<feColorMatrix in="SourceAlpha" type="matrix" values="0 0 0 0 0 0 0 0 0 0 0 0 0 0 0 0 0 0 127 0" result="hardAlpha"/>
<feOffset dy="8"/>
<feGaussianBlur stdDeviation="7.5"/>
<feComposite in2="hardAlpha" operator="out"/>
<feColorMatrix type="matrix" values="0 0 0 0 0 0 0 0 0 0 0 0 0 0 0 0 0 0 0.24 0"/>
<feBlend mode="normal" in2="BackgroundImageFix" result="effect1_dropShadow_49_570"/>
<feBlend mode="normal" in="SourceGraphic" in2="effect1_dropShadow_49_570" result="shape"/>
</filter>
<filter id="filter1_d_49_570" x="43" y="35" width="33.7655" height="40.2666" filterUnits="userSpaceOnUse" color-interpolation-filters="sRGB">
<feFlood flood-opacity="0" result="BackgroundImageFix"/>
<feColorMatrix in="SourceAlpha" type="matrix" values="0 0 0 0 0 0 0 0 0 0 0 0 0 0 0 0 0 0 127 0" result="hardAlpha"/>
<feOffset dy="4"/>
<feGaussianBlur stdDeviation="1"/>
<feComposite in2="hardAlpha" operator="out"/>
<feColorMatrix type="matrix" values="0 0 0 0 0 0 0 0 0 0 0 0 0 0 0 0 0 0 0.33 0"/>
<feBlend mode="normal" in2="BackgroundImageFix" result="effect1_dropShadow_49_570"/>
<feBlend mode="normal" in="SourceGraphic" in2="effect1_dropShadow_49_570" result="shape"/>
</filter>
</defs>
</svg>
