<svg width="94" height="93" viewBox="0 0 94 93" fill="none" xmlns="http://www.w3.org/2000/svg">
<path d="M77.9042 26.5969C73.9161 26.5969 70.2626 28.0556 67.4478 30.4664L60.6179 24.7748C62.24 22.2105 63.0994 19.2378 63.0958 16.2035C63.0958 7.32822 55.8753 0.107666 47 0.107666C38.1247 0.107666 30.9042 7.32822 30.9042 16.2035C30.9042 20.8604 32.8927 25.0606 36.0644 28.0023L24.8171 37.9999C22.22 36.3168 19.1906 35.4229 16.0958 35.4265C7.22056 35.4267 0 42.6471 0 51.5225C0 60.398 7.22056 67.6184 16.0958 67.6184C24.9711 67.6184 32.1917 60.3978 32.1917 51.5225C32.1917 46.8657 30.2032 42.6654 27.0314 39.7235L38.2787 29.7259C40.8758 31.4091 43.9052 32.303 47 32.2994C51.7364 32.2994 56.0011 30.2426 58.949 26.9759L65.5057 32.4396C63.1974 35.226 61.8083 38.8 61.8083 42.6926C61.8083 51.5679 69.0289 58.7884 77.9042 58.7884C86.7794 58.7884 94 51.5679 94 42.6926C94 33.8173 86.7794 26.5969 77.9042 26.5969ZM29.4325 51.5225C29.4325 58.8764 23.4497 64.8592 16.0958 64.8592C8.742 64.8592 2.75923 58.8764 2.75923 51.5225C2.75923 44.1687 8.742 38.1859 16.0958 38.1859C23.4497 38.1859 29.4325 44.1687 29.4325 51.5225ZM47 29.5401C39.6462 29.5401 33.6634 23.5574 33.6634 16.2035C33.6634 8.84966 39.6462 2.8669 47 2.8669C54.3538 2.8669 60.3366 8.84966 60.3366 16.2035C60.3366 23.5574 54.3538 29.5401 47 29.5401ZM77.9042 56.0294C70.5503 56.0294 64.5675 50.0466 64.5675 42.6928C64.5675 39.2229 65.9004 36.059 68.08 33.6842C68.3069 33.6013 68.5078 33.46 68.6626 33.2746C68.763 33.1535 68.8419 33.0161 68.8959 32.8683C71.2707 30.6892 74.4342 29.3564 77.904 29.3564C85.2578 29.3564 91.2406 35.3391 91.2406 42.693C91.2408 50.0466 85.258 56.0294 77.9042 56.0294Z" fill="#F95E19"/>
<path d="M39 16.4292H40.1937V15.4345H39V13.8429H40.4722L40.4921 13.8031C40.5452 13.6307 40.5982 13.4649 40.6513 13.3057C40.7043 13.1466 40.8303 12.8747 41.0293 12.49C41.2282 12.1054 41.4404 11.7539 41.6659 11.4356C41.8914 11.104 42.2031 10.7393 42.6009 10.3414C42.9988 9.94351 43.4233 9.61193 43.8742 9.34667C44.3384 9.06814 44.8955 8.83604 45.5454 8.65035C46.2085 8.46467 46.9115 8.37183 47.6542 8.37183C48.3439 8.37183 48.9872 8.44477 49.584 8.59067C50.1941 8.73656 50.6848 8.91562 51.0562 9.12783C51.4408 9.32677 51.7724 9.52572 52.0509 9.72467C52.3295 9.92362 52.5284 10.096 52.6478 10.2419L52.8268 10.4608L52.1305 11.9529C52.0907 11.8998 52.0377 11.8335 51.9714 11.7539C51.9051 11.6611 51.7393 11.5086 51.474 11.2964C51.222 11.0841 50.9435 10.8985 50.6384 10.7393C50.3466 10.5669 49.9487 10.4144 49.4447 10.2817C48.9407 10.1358 48.4102 10.0629 47.8532 10.0629C47.0308 10.0629 46.2815 10.1955 45.6051 10.4608C44.9286 10.7128 44.3981 11.0245 44.0135 11.3958C43.6421 11.7672 43.3238 12.1386 43.0585 12.5099C42.7933 12.8813 42.6142 13.193 42.5214 13.445L42.3821 13.8429H49.9421L49.4447 15.4345H42.0837V16.4292H49.1463L48.6489 18.0208H42.3821C42.4086 18.1269 42.4551 18.2661 42.5214 18.4386C42.5877 18.5977 42.7601 18.8961 43.0386 19.3338C43.3304 19.7715 43.662 20.1561 44.0334 20.4877C44.4047 20.8193 44.9286 21.1244 45.6051 21.4029C46.2815 21.6681 47.0308 21.8008 47.8532 21.8008C48.4102 21.8008 48.9407 21.7212 49.4447 21.562C49.962 21.3896 50.3864 21.1907 50.718 20.9652C51.0628 20.7265 51.3613 20.4944 51.6133 20.2689C51.8653 20.0301 52.0443 19.8246 52.1504 19.6521L52.3295 19.4134H52.6279V21.4029C52.5881 21.4559 52.5284 21.5289 52.4488 21.6217C52.3693 21.7146 52.1769 21.887 51.8719 22.139C51.5801 22.3777 51.2552 22.5899 50.8971 22.7756C50.5522 22.948 50.088 23.1072 49.5044 23.2531C48.9208 23.4122 48.3041 23.4918 47.6542 23.4918C46.9115 23.4918 46.2085 23.3924 45.5454 23.1934C44.8822 23.0077 44.3252 22.7889 43.8742 22.5369C43.4233 22.2716 42.9922 21.9334 42.5811 21.5222C42.1832 21.0978 41.8781 20.7397 41.6659 20.4479C41.4537 20.1561 41.2415 19.798 41.0293 19.3736C40.8171 18.9359 40.6911 18.664 40.6513 18.5579C40.6115 18.4518 40.5584 18.286 40.4921 18.0606L40.4722 18.0208H39V16.4292Z" fill="#141C28"/>
<path d="M8 52.4292H9.19368V51.4345H8V49.8429H9.47221L9.49211 49.8031C9.54516 49.6307 9.59821 49.4649 9.65126 49.3057C9.70432 49.1466 9.83032 48.8747 10.0293 48.49C10.2282 48.1054 10.4404 47.7539 10.6659 47.4356C10.8914 47.104 11.2031 46.7393 11.6009 46.3414C11.9988 45.9435 12.4233 45.6119 12.8742 45.3467C13.3384 45.0681 13.8955 44.836 14.5454 44.6504C15.2085 44.4647 15.9115 44.3718 16.6542 44.3718C17.3439 44.3718 17.9872 44.4448 18.584 44.5907C19.1941 44.7366 19.6848 44.9156 20.0562 45.1278C20.4408 45.3268 20.7724 45.5257 21.0509 45.7247C21.3295 45.9236 21.5284 46.096 21.6478 46.2419L21.8268 46.4608L21.1305 47.9529C21.0907 47.8998 21.0377 47.8335 20.9714 47.7539C20.9051 47.6611 20.7393 47.5086 20.474 47.2964C20.222 47.0841 19.9435 46.8985 19.6384 46.7393C19.3466 46.5669 18.9487 46.4144 18.4447 46.2817C17.9407 46.1358 17.4102 46.0629 16.8532 46.0629C16.0308 46.0629 15.2815 46.1955 14.6051 46.4608C13.9286 46.7128 13.3981 47.0245 13.0135 47.3958C12.6421 47.7672 12.3238 48.1386 12.0585 48.5099C11.7933 48.8813 11.6142 49.193 11.5214 49.445L11.3821 49.8429H18.9421L18.4447 51.4345H11.0837V52.4292H18.1463L17.6489 54.0208H11.3821C11.4086 54.1269 11.4551 54.2661 11.5214 54.4386C11.5877 54.5977 11.7601 54.8961 12.0386 55.3338C12.3304 55.7715 12.662 56.1561 13.0334 56.4877C13.4047 56.8193 13.9286 57.1244 14.6051 57.4029C15.2815 57.6681 16.0308 57.8008 16.8532 57.8008C17.4102 57.8008 17.9407 57.7212 18.4447 57.562C18.962 57.3896 19.3864 57.1907 19.718 56.9652C20.0628 56.7265 20.3613 56.4944 20.6133 56.2689C20.8653 56.0301 21.0443 55.8246 21.1504 55.6521L21.3295 55.4134H21.6279V57.4029C21.5881 57.4559 21.5284 57.5289 21.4488 57.6217C21.3693 57.7146 21.1769 57.887 20.8719 58.139C20.5801 58.3777 20.2552 58.5899 19.8971 58.7756C19.5522 58.948 19.088 59.1072 18.5044 59.2531C17.9208 59.4122 17.3041 59.4918 16.6542 59.4918C15.9115 59.4918 15.2085 59.3924 14.5454 59.1934C13.8822 59.0077 13.3252 58.7889 12.8742 58.5369C12.4233 58.2716 11.9922 57.9334 11.5811 57.5222C11.1832 57.0978 10.8781 56.7397 10.6659 56.4479C10.4537 56.1561 10.2415 55.798 10.0293 55.3736C9.81705 54.9359 9.69105 54.664 9.65126 54.5579C9.61147 54.4518 9.55842 54.286 9.49211 54.0606L9.47221 54.0208H8V52.4292Z" fill="#141C28"/>
<path d="M70 43.4292H71.1937V42.4345H70V40.8429H71.4722L71.4921 40.8031C71.5452 40.6307 71.5982 40.4649 71.6513 40.3057C71.7043 40.1466 71.8303 39.8747 72.0293 39.49C72.2282 39.1054 72.4404 38.7539 72.6659 38.4356C72.8914 38.104 73.2031 37.7393 73.6009 37.3414C73.9988 36.9435 74.4233 36.6119 74.8742 36.3467C75.3384 36.0681 75.8955 35.836 76.5454 35.6504C77.2085 35.4647 77.9115 35.3718 78.6542 35.3718C79.3439 35.3718 79.9872 35.4448 80.584 35.5907C81.1941 35.7366 81.6848 35.9156 82.0562 36.1278C82.4408 36.3268 82.7724 36.5257 83.0509 36.7247C83.3295 36.9236 83.5284 37.096 83.6478 37.2419L83.8268 37.4608L83.1305 38.9529C83.0907 38.8998 83.0377 38.8335 82.9714 38.7539C82.9051 38.6611 82.7393 38.5086 82.474 38.2964C82.222 38.0841 81.9435 37.8985 81.6384 37.7393C81.3466 37.5669 80.9487 37.4144 80.4447 37.2817C79.9407 37.1358 79.4102 37.0629 78.8532 37.0629C78.0308 37.0629 77.2815 37.1955 76.6051 37.4608C75.9286 37.7128 75.3981 38.0245 75.0135 38.3958C74.6421 38.7672 74.3238 39.1386 74.0585 39.5099C73.7933 39.8813 73.6142 40.193 73.5214 40.445L73.3821 40.8429H80.9421L80.4447 42.4345H73.0837V43.4292H80.1463L79.6489 45.0208H73.3821C73.4086 45.1269 73.4551 45.2661 73.5214 45.4386C73.5877 45.5977 73.7601 45.8961 74.0386 46.3338C74.3304 46.7715 74.662 47.1561 75.0334 47.4877C75.4047 47.8193 75.9286 48.1244 76.6051 48.4029C77.2815 48.6681 78.0308 48.8008 78.8532 48.8008C79.4102 48.8008 79.9407 48.7212 80.4447 48.562C80.962 48.3896 81.3864 48.1907 81.718 47.9652C82.0628 47.7265 82.3613 47.4944 82.6133 47.2689C82.8653 47.0301 83.0443 46.8246 83.1504 46.6521L83.3295 46.4134H83.6279V48.4029C83.5881 48.4559 83.5284 48.5289 83.4488 48.6217C83.3693 48.7146 83.1769 48.887 82.8719 49.139C82.5801 49.3777 82.2552 49.5899 81.8971 49.7756C81.5522 49.948 81.088 50.1072 80.5044 50.2531C79.9208 50.4122 79.3041 50.4918 78.6542 50.4918C77.9115 50.4918 77.2085 50.3924 76.5454 50.1934C75.8822 50.0077 75.3252 49.7889 74.8742 49.5369C74.4233 49.2716 73.9922 48.9334 73.5811 48.5222C73.1832 48.0978 72.8781 47.7397 72.6659 47.4479C72.4537 47.1561 72.2415 46.798 72.0293 46.3736C71.8171 45.9359 71.6911 45.664 71.6513 45.5579C71.6115 45.4518 71.5584 45.286 71.4921 45.0606L71.4722 45.0208H70V43.4292Z" fill="#141C28"/>
<path d="M29.3405 72.2171H17.5675C17.2016 72.2171 16.8507 72.3625 16.5919 72.6212C16.3332 72.88 16.1878 73.2309 16.1878 73.5968V91.2564C16.1878 91.6223 16.3332 91.9732 16.5919 92.232C16.8507 92.4907 17.2016 92.6361 17.5675 92.6361H29.3405C29.7064 92.6361 30.0573 92.4907 30.3161 92.232C30.5748 91.9732 30.7202 91.6223 30.7202 91.2564V73.5968C30.7202 73.4156 30.6845 73.2362 30.6152 73.0688C30.5459 72.9014 30.4442 72.7493 30.3161 72.6212C30.188 72.4931 30.0359 72.3914 29.8685 72.3221C29.7011 72.2528 29.5217 72.2171 29.3405 72.2171ZM27.9608 89.8767H18.947V74.9764H27.9608V89.8767ZM86.7339 72.2171H74.9609C74.7797 72.2171 74.6003 72.2528 74.4329 72.3221C74.2655 72.3914 74.1134 72.4931 73.9853 72.6212C73.8572 72.7493 73.7555 72.9014 73.6862 73.0688C73.6169 73.2362 73.5812 73.4156 73.5812 73.5968V91.2564C73.5812 91.4375 73.6169 91.617 73.6862 91.7844C73.7555 91.9518 73.8572 92.1039 73.9853 92.232C74.1134 92.3601 74.2655 92.4618 74.4329 92.5311C74.6003 92.6004 74.7797 92.6361 74.9609 92.6361H86.7339C86.9151 92.6361 87.0945 92.6004 87.2619 92.5311C87.4293 92.4618 87.5814 92.3601 87.7095 92.232C87.8377 92.1039 87.9393 91.9518 88.0086 91.7844C88.0779 91.617 88.1136 91.4375 88.1136 91.2564V73.5968C88.1136 73.4156 88.0779 73.2362 88.0086 73.0688C87.9393 72.9014 87.8377 72.7493 87.7095 72.6212C87.5814 72.4931 87.4293 72.3914 87.2619 72.3221C87.0945 72.2528 86.9151 72.2171 86.7339 72.2171ZM85.3542 89.8767H76.3405V74.9764H85.3542V89.8767ZM48.4717 78.0123C48.6529 78.0123 48.8323 77.9766 48.9997 77.9073C49.1671 77.838 49.3192 77.7363 49.4473 77.6082C49.5754 77.4801 49.6771 77.328 49.7464 77.1606C49.8157 76.9932 49.8514 76.8138 49.8514 76.6326V55.9373C49.8514 55.7561 49.8157 55.5767 49.7464 55.4093C49.6771 55.2419 49.5754 55.0898 49.4473 54.9617C49.3192 54.8335 49.1671 54.7319 48.9997 54.6626C48.8323 54.5933 48.6529 54.5576 48.4717 54.5576H36.6985C36.3326 54.5576 35.9817 54.703 35.7229 54.9617C35.4642 55.2205 35.3188 55.5714 35.3188 55.9373V91.2564C35.3188 91.6223 35.4642 91.9732 35.7229 92.232C35.9817 92.4907 36.3326 92.6361 36.6985 92.6361H48.4715C48.6527 92.6361 48.8321 92.6004 48.9995 92.5311C49.1669 92.4618 49.319 92.3601 49.4471 92.232C49.5753 92.1039 49.6769 91.9518 49.7462 91.7844C49.8155 91.617 49.8512 91.4375 49.8512 91.2564V83.0708C49.8512 82.8896 49.8155 82.7102 49.7462 82.5428C49.6769 82.3754 49.5753 82.2233 49.4471 82.0952C49.319 81.9671 49.1669 81.8654 48.9995 81.7961C48.8321 81.7268 48.6527 81.6911 48.4715 81.6911C48.2903 81.6911 48.1109 81.7268 47.9435 81.7961C47.7761 81.8654 47.624 81.9671 47.4958 82.0952C47.3677 82.2233 47.2661 82.3754 47.1967 82.5428C47.1274 82.7102 47.0917 82.8896 47.0918 83.0708V89.8767H38.0781V57.3168H47.0918V76.6324C47.0918 76.9984 47.2372 77.3493 47.4959 77.6081C47.7547 77.8669 48.1057 78.0123 48.4717 78.0123ZM67.6027 63.3874H55.8297C55.6485 63.3874 55.4691 63.423 55.3017 63.4923C55.1343 63.5617 54.9822 63.6633 54.8541 63.7914C54.726 63.9196 54.6243 64.0717 54.555 64.2391C54.4857 64.4065 54.45 64.5859 54.45 64.7671V91.2564C54.45 91.4375 54.4857 91.617 54.555 91.7844C54.6243 91.9518 54.726 92.1039 54.8541 92.232C54.9822 92.3601 55.1343 92.4618 55.3017 92.5311C55.4691 92.6004 55.6485 92.6361 55.8297 92.6361H67.6027C67.7839 92.6361 67.9633 92.6004 68.1307 92.5311C68.2981 92.4618 68.4502 92.3601 68.5783 92.232C68.7065 92.1039 68.8081 91.9518 68.8774 91.7844C68.9467 91.617 68.9824 91.4375 68.9824 91.2564V64.7671C68.9824 64.5859 68.9467 64.4065 68.8774 64.2391C68.8081 64.0717 68.7065 63.9196 68.5783 63.7914C68.4502 63.6633 68.2981 63.5617 68.1307 63.4923C67.9633 63.423 67.7839 63.3874 67.6027 63.3874ZM66.2232 89.8767H57.2094V66.1466H66.2232V89.8767Z" fill="#F95E19"/>
</svg>
