<svg width="220" height="35" viewBox="0 0 220 35" fill="none" xmlns="http://www.w3.org/2000/svg">
<g clip-path="url(#clip0_2462_47)">
<path d="M28.5928 17.3032H17.3032C12.7158 17.2979 8.31772 15.4731 5.07389 12.2293C1.83006 8.9855 0.00533825 4.58746 0 0L7.88658 0C7.88963 2.49651 8.88272 4.8899 10.648 6.6552C12.4133 8.4205 14.8067 9.41358 17.3032 9.41663H20.7062V0H28.5928V17.3032Z" fill="#F95E19"/>
<path d="M29.7656 34.2666H21.879C21.8759 31.7701 20.8829 29.3767 19.1176 27.6114C17.3523 25.8461 14.9589 24.853 12.4624 24.85H9.05934V34.2551H1.17276V16.9663H12.4624C17.0493 16.9716 21.4469 18.796 24.6907 22.0392C27.9344 25.2824 29.7595 29.6797 29.7656 34.2666Z" fill="#F95E19"/>
<path d="M45.1353 10.1514C45.1353 8.4946 46.576 7.26998 49.0685 7.26998C52.7942 7.26998 55.4855 9.75092 55.4855 9.75092L57.5515 4.78327C57.5515 4.78327 54.4597 1.66553 48.449 1.66553C42.4382 1.66553 38.7212 5.38838 38.7212 9.94398C38.7212 19.4528 52.5868 19.0494 52.5868 24.0142C52.5868 26.086 50.9299 27.5325 47.5384 27.5325C43.0693 27.5325 40.1705 24.4291 40.1705 24.4291L38.0988 29.391C38.0988 29.391 41.617 33.1369 47.8324 33.1369C54.866 33.1369 59.0067 29.4083 59.0067 23.824C59.0038 14.6955 45.1353 14.4967 45.1353 10.1514Z" fill="white"/>
<path d="M82.384 21.1182C82.384 14.0816 78.2462 9.94385 71.6246 9.94385C65.003 9.94385 60.0353 14.9115 60.0353 21.5331C60.0353 28.3593 64.7926 33.1224 71.8292 33.1224C77.4192 33.1224 80.7272 30.6357 80.7272 30.6357V25.256H80.1048C80.1048 25.256 77.8313 27.7398 72.4487 27.7398C68.308 27.7398 66.0317 25.6709 65.6196 22.775H82.3811L82.384 21.1182ZM65.83 18.8418C66.4495 16.9775 68.5213 15.1161 72.0395 15.1161C74.9383 15.1161 76.7997 16.7729 76.7997 18.8418H65.83Z" fill="white"/>
<path d="M97.699 9.94385C92.7342 9.94385 90.8699 13.6667 90.8699 13.6667H90.6624L90.455 10.5634H84.6603V32.4971H90.6624V20.7032C90.6624 17.3924 92.9388 15.3235 96.0421 15.3235C98.5288 15.3235 100.18 16.7643 100.18 19.4613V32.4971H106.185V18.8418C106.185 13.2547 102.868 9.94385 97.699 9.94385Z" fill="white"/>
<path d="M126.257 1.0459V13.6667H126.053C126.053 13.6667 123.981 9.94387 118.806 9.94387C113.011 9.94387 108.251 14.7012 108.251 21.5331C108.251 28.3651 113.011 33.1368 118.806 33.1368C123.992 33.1368 126.053 29.4082 126.053 29.4082H126.257L126.462 32.5115H132.259V1.0459H126.257ZM120.463 27.7398C117.149 27.7398 114.46 25.256 114.46 21.5331C114.46 17.8103 117.149 15.3236 120.463 15.3236C123.566 15.3236 126.257 17.8074 126.257 21.5331C126.257 25.2589 123.566 27.7398 120.463 27.7398Z" fill="white"/>
<path d="M154.885 21.5332H147.381L155.432 32.4972H162.884L154.885 21.5332Z" fill="#F95E19"/>
<path d="M161.849 2.28516H154.193L142.607 14.7014V2.28516H136.397V32.4974H142.607V22.5678L145.71 19.257L150.052 14.9117L161.849 2.28516Z" fill="white"/>
<path d="M172.819 9.94385C165.367 9.94385 160.607 14.9115 160.607 21.5331C160.607 28.1547 165.367 33.1368 172.819 33.1368C180.27 33.1368 185.028 28.1691 185.028 21.5475C185.028 14.9259 180.27 9.94385 172.819 9.94385ZM172.819 27.7398C169.505 27.7398 166.817 25.256 166.817 21.5331C166.817 17.8103 169.505 15.3235 172.819 15.3235C176.133 15.3235 178.818 17.8074 178.818 21.5331C178.818 25.2588 176.127 27.7398 172.819 27.7398Z" fill="white"/>
<path d="M187.295 1.0459V32.4971H193.3V1.0459H187.295Z" fill="white"/>
<path d="M207.788 9.94385C200.343 9.94385 195.579 14.9115 195.579 21.5331C195.579 28.1547 200.343 33.1368 207.788 33.1368C215.234 33.1368 220 28.1547 220 21.5331C220 14.9115 215.246 9.94385 207.788 9.94385ZM207.788 27.7398C204.48 27.7398 201.789 25.256 201.789 21.5331C201.789 17.8103 204.48 15.3235 207.788 15.3235C211.096 15.3235 213.805 17.8074 213.805 21.5331C213.805 25.2588 211.102 27.7398 207.788 27.7398Z" fill="white"/>
</g>
<defs>
<clipPath id="clip0_2462_47">
<rect width="220" height="34.2664" fill="white"/>
</clipPath>
</defs>
</svg>
