<svg width="28" height="43" viewBox="0 0 28 43" fill="none" xmlns="http://www.w3.org/2000/svg">
<path d="M0 37.1218H27.3C27.3 40.0167 24.9449 42.3718 22.05 42.3718H5.25C2.35515 42.3718 0 40.0167 0 37.1218ZM27.3 5.62183V35.0218H0V5.62183C0 2.72698 2.35515 0.371826 5.25 0.371826H22.05C24.9449 0.371826 27.3 2.72698 27.3 5.62183ZM20.6924 20.6295C20.2823 20.2194 19.6177 20.2194 19.2077 20.6295L14.7 25.1371V10.8718C14.7 10.2922 14.2296 9.82183 13.65 9.82183C13.0704 9.82183 12.6 10.2922 12.6 10.8718V25.1371L8.09235 20.6295C7.68233 20.2194 7.01767 20.2194 6.60765 20.6295C6.19762 21.0395 6.19762 21.7042 6.60765 22.1142L12.9076 28.4142C13.1129 28.6195 13.3812 28.7218 13.65 28.7218C13.9188 28.7218 14.1871 28.6195 14.3924 28.4142L20.6924 22.1142C21.1024 21.7042 21.1024 21.0395 20.6924 20.6295Z" fill="#F95E19"/>
</svg>
