<svg width="94" height="95" viewBox="0 0 94 95" fill="none" xmlns="http://www.w3.org/2000/svg">
<g clip-path="url(#clip0_2396_209)">
<path d="M34.1379 48.738C34.1379 44.3474 30.585 40.7945 26.1943 40.7945" stroke="#141C28" stroke-width="3" stroke-miterlimit="10" stroke-linecap="round" stroke-linejoin="round"/>
<path d="M81.1587 48.738C81.1587 44.3474 84.7116 40.7945 89.1022 40.7945" stroke="#141C28" stroke-width="3" stroke-miterlimit="10" stroke-linecap="round" stroke-linejoin="round"/>
<path d="M81.1587 15.1837C81.1587 19.5743 84.7116 23.1272 89.1022 23.1272" stroke="#141C28" stroke-width="3" stroke-miterlimit="10" stroke-linecap="round" stroke-linejoin="round"/>
<path d="M57.6483 15.0595H86.2475C87.8927 15.0595 89.2264 16.3932 89.2264 18.0383V45.8834C89.2264 47.5286 87.8927 48.8622 86.2475 48.8622H65.91" stroke="#141C28" stroke-width="3" stroke-miterlimit="10" stroke-linecap="round" stroke-linejoin="round"/>
<path d="M49.3865 48.8622H29.049C27.404 48.8622 26.0702 47.5286 26.0702 45.8834V29.9412" stroke="#141C28" stroke-width="3" stroke-miterlimit="10" stroke-linecap="round" stroke-linejoin="round"/>
<path d="M49.7446 27.7976C51.2437 24.9652 54.2206 23.0352 57.6485 23.0352C62.5839 23.0352 66.5849 27.0363 66.5849 31.9716C66.5849 36.9072 62.5839 40.9082 57.6485 40.9082C53.8632 40.9082 50.6275 38.5547 49.325 35.2311" stroke="#141C28" stroke-width="3" stroke-miterlimit="10" stroke-linecap="round" stroke-linejoin="round"/>
<path d="M17.9922 5.14549H44.6143C47.2287 5.14549 49.7696 6.01132 51.84 7.60784L61.5038 15.0595H41.5397C39.4348 15.0595 37.7285 16.7658 37.7285 18.8707C37.7285 20.2574 38.4817 21.5347 39.6951 22.2057L49.1406 27.4297C51.099 28.5127 51.9696 30.8663 51.1875 32.9632C50.4272 35.0014 48.3227 36.2085 46.1796 35.836L39.5477 34.6829C33.3713 33.6089 27.5124 31.17 22.3984 27.5439H17.9922" stroke="#F95E19" stroke-width="3" stroke-miterlimit="10" stroke-linecap="round" stroke-linejoin="round"/>
<path d="M17.9921 31.583H1.83594V2.2081H17.9921V31.583Z" stroke="#F95E19" stroke-width="3" stroke-miterlimit="10" stroke-linecap="round" stroke-linejoin="round"/>
<path d="M75.9937 90.3328H40.0259C36.8762 90.3328 33.7573 89.7124 30.8474 88.507C27.9374 87.3017 25.2933 85.535 23.0662 83.3078L13.0921 73.3337C11.3066 71.5482 11.3134 68.6511 13.1073 66.874C14.8895 65.1083 17.7636 65.1153 19.5373 66.8894L28.4621 75.8168C29.9431 77.2982 31.7015 78.4733 33.6367 79.2751C35.5719 80.0769 37.6461 80.4896 39.7408 80.4896H49.6587" stroke="#F95E19" stroke-width="3" stroke-miterlimit="10" stroke-linecap="round" stroke-linejoin="round"/>
<path d="M60.4973 80.4896H40.5055C37.9956 80.4896 35.9608 78.4549 35.9608 75.9448C35.9608 73.4349 37.9956 71.4001 40.5055 71.4001H52.0972L54.4949 68.5539C55.9689 66.8041 57.8074 65.3977 59.8819 64.4328C61.9563 63.4679 64.2165 62.968 66.5043 62.968C69.8173 62.968 73.0454 64.0159 75.7267 65.9617L75.9937 66.1554" stroke="#F95E19" stroke-width="3" stroke-miterlimit="10" stroke-linecap="round" stroke-linejoin="round"/>
<path d="M92.1638 92.5359H76.0076V63.161H92.1638V92.5359Z" stroke="#F95E19" stroke-width="3" stroke-miterlimit="10" stroke-linecap="round" stroke-linejoin="round"/>
</g>
<defs>
<clipPath id="clip0_2396_209">
<rect width="94" height="94" fill="white" transform="translate(0 0.371826)"/>
</clipPath>
</defs>
</svg>
