<svg width="195" height="31" viewBox="0 0 195 31" fill="none" xmlns="http://www.w3.org/2000/svg">
<path d="M25.3436 15.3369H15.3369C11.2708 15.3322 7.37252 13.7148 4.49731 10.8396C1.6221 7.96441 0.00473163 4.06615 0 0L6.99037 0C6.99308 2.21281 7.87331 4.33422 9.43801 5.89892C11.0027 7.46362 13.1241 8.34385 15.3369 8.34656H18.3532V0H25.3436V15.3369Z" fill="#F95E19"/>
<path d="M26.3831 30.3725H19.3927C19.39 28.1597 18.5098 26.0382 16.9451 24.4735C15.3804 22.9088 13.259 22.0286 11.0462 22.0259H8.02986V30.3623H1.03949V15.0381H11.0462C15.1119 15.0428 19.0098 16.6598 21.8849 19.5345C24.76 22.4092 26.3777 26.3068 26.3831 30.3725Z" fill="#F95E19"/>
<path d="M40.0063 8.99787C40.0063 7.5293 41.2833 6.44384 43.4925 6.44384C46.7949 6.44384 49.1803 8.64286 49.1803 8.64286L51.0116 4.23971C51.0116 4.23971 48.2711 1.47626 42.9434 1.47626C37.6157 1.47626 34.321 4.77606 34.321 8.81397C34.321 17.2423 46.611 16.8847 46.611 21.2853C46.611 23.1216 45.1424 24.4038 42.1363 24.4038C38.175 24.4038 35.6057 21.6531 35.6057 21.6531L33.7693 26.0511C33.7693 26.0511 36.8878 29.3713 42.3968 29.3713C48.6312 29.3713 52.3014 26.0664 52.3014 21.1167C52.2988 13.0256 40.0063 12.8493 40.0063 8.99787Z" fill="#141C28"/>
<path d="M73.0222 18.7185C73.0222 12.4815 69.3546 8.81396 63.4855 8.81396C57.6163 8.81396 53.2132 13.2171 53.2132 19.0863C53.2132 25.1367 57.4299 29.3586 63.6668 29.3586C68.6216 29.3586 71.5536 27.1544 71.5536 27.1544V22.3861H71.002C71.002 22.3861 68.9868 24.5876 64.2159 24.5876C60.5458 24.5876 58.5281 22.7538 58.1629 20.187H73.0197L73.0222 18.7185ZM58.3493 16.7008C58.8984 15.0483 60.7348 13.3984 63.8532 13.3984C66.4226 13.3984 68.0725 14.867 68.0725 16.7008H58.3493Z" fill="#141C28"/>
<path d="M86.5968 8.81396C82.1962 8.81396 80.5438 12.1138 80.5438 12.1138H80.3599L80.176 9.36308H75.0399V28.8043H80.3599V18.3507C80.3599 15.4161 82.3776 13.5823 85.1283 13.5823C87.3324 13.5823 88.7959 14.8593 88.7959 17.2499V28.8043H94.1185V16.7008C94.1185 11.7485 91.1788 8.81396 86.5968 8.81396Z" fill="#141C28"/>
<path d="M111.91 0.927124V12.1138H111.728C111.728 12.1138 109.892 8.81396 105.305 8.81396C100.169 8.81396 95.9497 13.0307 95.9497 19.0863C95.9497 25.1419 100.169 29.3713 105.305 29.3713C109.902 29.3713 111.728 26.0664 111.728 26.0664H111.91L112.091 28.8171H117.23V0.927124H111.91ZM106.774 24.5876C103.837 24.5876 101.454 22.3861 101.454 19.0863C101.454 15.7865 103.837 13.5823 106.774 13.5823C109.524 13.5823 111.91 15.7839 111.91 19.0863C111.91 22.3886 109.524 24.5876 106.774 24.5876Z" fill="#141C28"/>
<path d="M137.284 19.0862H130.633L137.769 28.8043H144.374L137.284 19.0862Z" fill="#F95E19"/>
<path d="M143.457 2.02533H136.671L126.401 13.0306V2.02533H120.897V28.8043H126.401V20.0031L129.152 17.0685L133.001 13.2171L143.457 2.02533Z" fill="#141C28"/>
<path d="M153.18 8.81396C146.576 8.81396 142.356 13.2171 142.356 19.0863C142.356 24.9554 146.576 29.3713 153.18 29.3713C159.785 29.3713 164.002 24.9682 164.002 19.099C164.002 13.2299 159.785 8.81396 153.18 8.81396ZM153.18 24.5876C150.243 24.5876 147.86 22.3861 147.86 19.0863C147.86 15.7865 150.243 13.5823 153.18 13.5823C156.117 13.5823 158.498 15.7839 158.498 19.0863C158.498 22.3886 156.112 24.5876 153.18 24.5876Z" fill="#141C28"/>
<path d="M166.012 0.927124V28.8043H171.335V0.927124H166.012Z" fill="#141C28"/>
<path d="M184.176 8.81396C177.576 8.81396 173.355 13.2171 173.355 19.0863C173.355 24.9554 177.576 29.3713 184.176 29.3713C190.776 29.3713 195 24.9554 195 19.0863C195 13.2171 190.786 8.81396 184.176 8.81396ZM184.176 24.5876C181.244 24.5876 178.858 22.3861 178.858 19.0863C178.858 15.7865 181.244 13.5823 184.176 13.5823C187.108 13.5823 189.509 15.7839 189.509 19.0863C189.509 22.3886 187.113 24.5876 184.176 24.5876Z" fill="#141C28"/>
</svg>
