<svg width="187" height="72" viewBox="0 0 187 72" fill="none" xmlns="http://www.w3.org/2000/svg">
<g filter="url(#filter0_d_8_244)">
<rect x="12" y="7" width="163.44" height="48.4219" rx="5.52912" fill="black" stroke="white" stroke-width="1.10582"/>
<path d="M98.1026 23.0197C97.0111 23.0197 96.091 22.6362 95.3634 21.8815C94.6418 21.1478 94.2389 20.1364 94.2569 19.1038C94.2569 18.0018 94.6297 17.0689 95.3634 16.3292C96.088 15.5744 97.0081 15.1909 98.0996 15.1909C99.179 15.1909 100.099 15.5744 100.839 16.3292C101.572 17.093 101.945 18.026 101.945 19.1038C101.933 20.2088 101.56 21.1418 100.839 21.8784C100.114 22.6393 99.194 23.0197 98.1026 23.0197ZM65.6264 23.0197C64.559 23.0197 63.6329 22.6423 62.8752 21.8965C62.1235 21.1538 61.7416 20.2149 61.7416 19.1068C61.7416 17.9988 62.1235 17.0598 62.8752 16.3171C63.6179 15.5714 64.544 15.194 65.6264 15.194C66.1556 15.194 66.6697 15.2996 67.1629 15.514C67.6469 15.7223 68.0408 16.0061 68.3325 16.3533L68.4047 16.4409L67.5898 17.244L67.5056 17.1444C67.0456 16.5949 66.4292 16.3262 65.6144 16.3262C64.8867 16.3262 64.2523 16.5858 63.7291 17.0991C63.2029 17.6154 62.9353 18.2916 62.9353 19.1098C62.9353 19.928 63.2029 20.6043 63.7291 21.1206C64.2523 21.6339 64.8867 21.8935 65.6144 21.8935C66.3901 21.8935 67.0426 21.6339 67.5507 21.1206C67.8514 20.8187 68.0378 20.396 68.104 19.8616H65.4911V18.7324H69.2255L69.2405 18.8351C69.2676 19.0253 69.2947 19.2216 69.2947 19.4027C69.2947 20.4443 68.982 21.2867 68.3626 21.9086C67.659 22.6453 66.7389 23.0197 65.6264 23.0197ZM108.807 22.8597H107.655L104.128 17.1927L104.158 18.2131V22.8566H103.007V15.354H104.321L104.357 15.4113L107.673 20.7493L107.643 19.7318V15.354H108.807V22.8597ZM89.4491 22.8597H88.2824V16.4832H86.2589V15.354H91.4696V16.4832H89.4461V22.8597H89.4491ZM85.3087 22.8597H84.1451V15.354H85.3087V22.8597ZM78.769 22.8597H77.6054V16.4832H75.5818V15.354H80.7926V16.4832H78.769V22.8597ZM74.8452 22.8476H70.3831V15.354H74.8452V16.4832H71.5497V18.5422H74.5234V19.6593H71.5497V21.7184H74.8452V22.8476ZM96.2173 21.1055C96.7375 21.6278 97.3689 21.8905 98.1026 21.8905C98.8573 21.8905 99.4737 21.6339 99.9878 21.1055C100.499 20.5923 100.758 19.919 100.758 19.1068C100.758 18.2947 100.499 17.6184 99.9908 17.1081C99.4706 16.5858 98.8362 16.3231 98.1056 16.3231C97.3509 16.3231 96.7345 16.5798 96.2233 17.1081C95.7122 17.6214 95.4536 18.2947 95.4536 19.1068C95.4536 19.919 95.7092 20.5953 96.2173 21.1055Z" fill="white"/>
<path fill-rule="evenodd" clip-rule="evenodd" d="M94.1497 33.3395C91.3082 33.3395 89.005 35.5043 89.005 38.4902C89.005 41.449 91.3233 43.641 94.1497 43.641C96.9911 43.641 99.2943 41.4611 99.2943 38.4902C99.2943 35.5043 96.9911 33.3395 94.1497 33.3395ZM94.1497 41.6C92.5952 41.6 91.2571 40.3078 91.2571 38.4782C91.2571 36.6214 92.5982 35.3563 94.1497 35.3563C95.7042 35.3563 97.0422 36.6214 97.0422 38.4782C97.0452 40.3199 95.7042 41.6 94.1497 41.6ZM82.9253 33.3395C80.0839 33.3395 77.7807 35.5043 77.7807 38.4902C77.7807 41.449 80.0989 43.641 82.9253 43.641C85.7667 43.641 88.0699 41.4611 88.0699 38.4902C88.0699 35.5043 85.7637 33.3395 82.9253 33.3395ZM82.9253 41.6C81.3708 41.6 80.0328 40.3078 80.0328 38.4782C80.0328 36.6214 81.3738 35.3563 82.9253 35.3563C84.4798 35.3563 85.8178 36.6214 85.8178 38.4782C85.8178 40.3199 84.4798 41.6 82.9253 41.6ZM69.5691 34.9125V37.0924H74.7799C74.6205 38.3151 74.2176 39.2179 73.6012 39.8368C72.8375 40.6037 71.6588 41.437 69.5811 41.437C66.3789 41.437 63.8742 38.8405 63.8742 35.625C63.8742 32.4096 66.3789 29.8131 69.5811 29.8131C71.31 29.8131 72.5699 30.4985 73.505 31.374L75.0445 29.8282C73.7455 28.5783 72.0166 27.6212 69.5932 27.6212C65.2002 27.6212 61.5139 31.214 61.5139 35.613C61.5139 40.024 65.1972 43.6047 69.5932 43.6047C71.9655 43.6047 73.7455 42.8258 75.1527 41.3585C76.587 39.9183 77.041 37.8864 77.041 36.247C77.041 35.7367 77.0019 35.2778 76.9207 34.8884H69.5661C69.5691 34.8853 69.5691 34.9125 69.5691 34.9125ZM124.2 36.6093C123.77 35.4529 122.471 33.3274 119.807 33.3274C117.167 33.3274 114.972 35.4137 114.972 38.4782C114.972 41.3705 117.143 43.6289 120.062 43.6289C122.408 43.6289 123.773 42.1887 124.335 41.3434L122.594 40.1719C122.017 41.0324 121.214 41.597 120.074 41.597C118.923 41.597 118.117 41.0716 117.582 40.0361L124.44 37.1829C124.44 37.1859 124.2 36.6093 124.2 36.6093ZM117.206 38.3302C117.152 36.3406 118.745 35.3292 119.885 35.3292C120.784 35.3292 121.533 35.773 121.788 36.4191L117.206 38.3302ZM111.634 43.3209H113.886V28.1888H111.634V43.3209ZM107.936 34.4838H107.855C107.346 33.8769 106.381 33.3274 105.149 33.3274C102.59 33.3274 100.232 35.5888 100.232 38.4933C100.232 41.3856 102.578 43.6198 105.149 43.6198C106.366 43.6198 107.346 43.0673 107.855 42.4484H107.936V43.1881C107.936 45.1536 106.889 46.2133 105.203 46.2133C103.823 46.2133 102.966 45.217 102.617 44.3837L100.659 45.2049C101.222 46.5635 102.722 48.2452 105.2 48.2452C107.84 48.2452 110.077 46.6843 110.077 42.8771V33.6354H107.948V34.4838C107.951 34.4838 107.936 34.4838 107.936 34.4838ZM105.35 41.6C103.795 41.6 102.497 40.2957 102.497 38.4933C102.497 36.6757 103.795 35.3593 105.35 35.3593C106.889 35.3593 108.083 36.6908 108.083 38.4933C108.098 40.2957 106.892 41.6 105.35 41.6ZM134.744 28.1888H129.359V43.3209H131.611V37.5905H134.747C137.24 37.5905 139.691 35.776 139.691 32.8957C139.691 30.0154 137.249 28.1888 134.744 28.1888ZM134.811 35.4771H131.608V30.2841H134.811C136.497 30.2841 137.451 31.682 137.451 32.8806C137.451 34.0671 136.485 35.4771 134.811 35.4771ZM148.717 33.3123C147.081 33.3123 145.395 34.04 144.697 35.625L146.693 36.4583C147.123 35.625 147.911 35.3412 148.744 35.3412C149.911 35.3412 151.089 36.0417 151.116 37.2916V37.4516C150.714 37.2222 149.83 36.872 148.771 36.872C146.615 36.872 144.429 38.0555 144.429 40.2746C144.429 42.3065 146.197 43.6108 148.167 43.6108C149.679 43.6108 150.512 42.9254 151.032 42.1314H151.113V43.3028H153.284V37.506C153.284 34.8068 151.288 33.3123 148.717 33.3123ZM148.434 41.6C147.698 41.6 146.666 41.2377 146.666 40.3078C146.666 39.1363 147.953 38.6925 149.051 38.6925C150.043 38.6925 150.512 38.9069 151.101 39.2028C150.939 40.5614 149.796 41.5879 148.434 41.6ZM161.204 33.6354L158.618 40.1991H158.537L155.858 33.6354H153.435L157.455 42.8107L155.164 47.9101H157.509L163.694 33.6354H161.204ZM140.932 43.3209H143.185V28.1888H140.932V43.3209Z" fill="white"/>
<path fill-rule="evenodd" clip-rule="evenodd" d="M24.5796 16.1208C24.2308 16.4982 24.0294 17.0748 24.0294 17.8296V44.6007C24.0294 45.3555 24.2308 45.9322 24.5916 46.2945L24.6849 46.376L39.6226 31.3767V31.0416L24.6728 16.0393L24.5796 16.1208Z" fill="url(#paint0_linear_8_244)"/>
<path fill-rule="evenodd" clip-rule="evenodd" d="M44.593 36.3913L39.6107 31.3886V31.0383L44.593 26.0356L44.7012 26.102L50.5946 29.4653C52.2814 30.4194 52.2814 31.9954 50.5946 32.9616L44.7012 36.3249L44.593 36.3913Z" fill="url(#paint1_linear_8_244)"/>
<path fill-rule="evenodd" clip-rule="evenodd" d="M44.703 36.3255L39.6125 31.214L24.5815 46.3069C25.1317 46.8986 26.0548 46.965 27.0862 46.3884L44.703 36.3255Z" fill="url(#paint2_linear_8_244)"/>
<path fill-rule="evenodd" clip-rule="evenodd" d="M44.703 26.1023L27.0862 16.0545C26.0548 15.4627 25.1287 15.5442 24.5815 16.136L39.6125 31.2138L44.703 26.1023Z" fill="url(#paint3_linear_8_244)"/>
<path opacity="0.2" fill-rule="evenodd" clip-rule="evenodd" d="M44.592 36.2164L27.0954 46.1978C26.1182 46.7624 25.2462 46.7232 24.6839 46.2099L24.5907 46.3035L24.6839 46.385C25.2462 46.8952 26.1182 46.9375 27.0954 46.3729L44.7123 36.3251L44.592 36.2164Z" fill="black"/>
<path opacity="0.12" fill-rule="evenodd" clip-rule="evenodd" d="M50.5941 32.787L44.5775 36.2168L44.6858 36.3255L50.5791 32.9621C51.424 32.479 51.8389 31.845 51.8389 31.214C51.7878 31.7937 51.3578 32.3432 50.5941 32.787Z" fill="black"/>
<path opacity="0.25" fill-rule="evenodd" clip-rule="evenodd" d="M27.0843 16.2297L50.5944 29.6409C51.3581 30.0726 51.7881 30.6372 51.8542 31.2139C51.8542 30.5829 51.4393 29.9488 50.5944 29.4658L27.0843 16.0546C25.3975 15.0854 24.0294 15.8946 24.0294 17.8298V18.005C24.0294 16.0666 25.3975 15.2726 27.0843 16.2297Z" fill="white"/>
</g>
<defs>
<filter id="filter0_d_8_244" x="0.447083" y="0.447083" width="186.546" height="71.5277" filterUnits="userSpaceOnUse" color-interpolation-filters="sRGB">
<feFlood flood-opacity="0" result="BackgroundImageFix"/>
<feColorMatrix in="SourceAlpha" type="matrix" values="0 0 0 0 0 0 0 0 0 0 0 0 0 0 0 0 0 0 127 0" result="hardAlpha"/>
<feOffset dy="5"/>
<feGaussianBlur stdDeviation="5.5"/>
<feComposite in2="hardAlpha" operator="out"/>
<feColorMatrix type="matrix" values="0 0 0 0 0 0 0 0 0 0 0 0 0 0 0 0 0 0 0.26 0"/>
<feBlend mode="normal" in2="BackgroundImageFix" result="effect1_dropShadow_8_244"/>
<feBlend mode="normal" in="SourceGraphic" in2="effect1_dropShadow_8_244" result="shape"/>
</filter>
<linearGradient id="paint0_linear_8_244" x1="38.2827" y1="17.5408" x2="14.342" y2="23.8937" gradientUnits="userSpaceOnUse">
<stop stop-color="#00A0FF"/>
<stop offset="0.00657" stop-color="#00A1FF"/>
<stop offset="0.2601" stop-color="#00BEFF"/>
<stop offset="0.5122" stop-color="#00D2FF"/>
<stop offset="0.7604" stop-color="#00DFFF"/>
<stop offset="1" stop-color="#00E3FF"/>
</linearGradient>
<linearGradient id="paint1_linear_8_244" x1="52.7944" y1="31.2135" x2="23.6195" y2="31.2135" gradientUnits="userSpaceOnUse">
<stop stop-color="#FFE000"/>
<stop offset="0.4087" stop-color="#FFBD00"/>
<stop offset="0.7754" stop-color="#FFA500"/>
<stop offset="1" stop-color="#FF9C00"/>
</linearGradient>
<linearGradient id="paint2_linear_8_244" x1="41.9349" y1="33.9954" x2="22.6089" y2="66.3892" gradientUnits="userSpaceOnUse">
<stop stop-color="#FF3A44"/>
<stop offset="1" stop-color="#C31162"/>
</linearGradient>
<linearGradient id="paint3_linear_8_244" x1="20.7965" y1="7.21642" x2="29.4187" y2="21.684" gradientUnits="userSpaceOnUse">
<stop stop-color="#32A071"/>
<stop offset="0.0685" stop-color="#2DA771"/>
<stop offset="0.4762" stop-color="#15CF74"/>
<stop offset="0.8009" stop-color="#06E775"/>
<stop offset="1" stop-color="#00F076"/>
</linearGradient>
</defs>
</svg>
