<svg width="94" height="95" viewBox="0 0 94 95" fill="none" xmlns="http://www.w3.org/2000/svg">
<path d="M47.0083 3.31396C35.3395 3.31396 26.1077 7.04443 19.8348 13.1897C13.5618 19.335 10.2865 27.8285 10.2865 37.0936C10.2976 38.82 12.7624 39.1198 13.1788 37.4433C13.1788 37.4377 13.4563 36.3275 14.5111 35.1229C15.5658 33.9127 17.2812 32.6803 20.562 32.6803C23.8372 32.6803 25.5637 33.9127 26.624 35.1229C27.5344 36.1665 27.812 37.0103 27.8841 37.249C27.9618 38.9921 30.4766 39.1698 30.793 37.4489C30.793 37.4489 31.0817 36.3275 32.142 35.1173C33.1967 33.9127 34.9121 32.6803 38.1929 32.6803C41.4681 32.6803 43.189 33.9127 44.2438 35.1229C45.2153 36.2331 45.4873 37.1768 45.5317 37.3323V45.8924C45.4873 47.8908 48.5127 47.8908 48.4739 45.8924V37.3267C48.5072 37.1768 48.7903 36.2331 49.7618 35.1229C50.8165 33.9127 52.5319 32.6803 55.8127 32.6803C59.0879 32.6803 60.8088 33.9127 61.8691 35.1229C62.8961 36.2886 63.1681 37.3378 63.1848 37.4044C63.5068 38.9477 65.694 38.9755 66.0548 37.4433C66.0548 37.4433 66.3213 36.333 67.376 35.1229C68.4308 33.9127 70.1572 32.6803 73.438 32.6803C76.7188 32.6803 78.4342 33.9127 79.4889 35.1229C80.5437 36.333 80.8212 37.4433 80.8212 37.4433C81.2431 39.1198 83.7079 38.8256 83.719 37.0991C83.719 27.8285 80.4382 19.335 74.1652 13.1897C67.8923 7.04998 58.6771 3.31396 47.0083 3.31396ZM45.5317 6.61143V28.2781C45.5317 30.2377 48.4739 30.2377 48.4739 28.2781V6.61143C49.6452 6.96671 51.3328 7.66618 53.2646 9.14282C56.7619 11.8185 60.7589 16.9146 62.4076 27.0346C62.663 29.0497 65.7106 28.5557 65.3054 26.5628C63.5845 16.0042 59.2656 10.1309 55.2298 6.96671C62.3077 8.24906 67.9478 11.2079 72.1168 15.2936C76.6245 19.7014 79.4001 25.4581 80.3716 31.9364C78.7839 30.7151 76.5023 29.7437 73.438 29.7437C69.3745 29.7437 66.6932 31.4479 65.1777 33.1799C64.9556 33.4297 64.8058 33.6795 64.6226 33.9293C64.4505 33.6795 64.2895 33.4297 64.073 33.1799C62.5575 31.4479 59.8762 29.7381 55.8127 29.7381C51.7491 29.7381 49.0623 31.4479 47.5468 33.1799C47.3303 33.4297 47.1804 33.674 47.0028 33.9238C46.8251 33.674 46.6697 33.4242 46.4532 33.1799C44.9432 31.4479 42.2564 29.7381 38.1929 29.7381C34.1293 29.7381 31.4425 31.4479 29.927 33.1799C29.7049 33.4297 29.5551 33.6795 29.3719 33.9293C29.1998 33.6795 29.0388 33.4297 28.8223 33.1799C27.3068 31.4479 24.6255 29.7381 20.562 29.7381C17.4921 29.7381 15.2161 30.7151 13.6284 31.9364C14.5943 25.4581 17.3811 19.7014 21.8887 15.2881C26.0522 11.2135 31.6923 8.25461 38.7646 6.96116C34.7344 10.1254 30.4155 16.0042 28.6946 26.5572C28.2949 28.5557 31.3426 29.0553 31.5924 27.0346C33.2411 16.9202 37.2491 11.8185 40.7465 9.14282C42.6728 7.66618 44.3604 6.96671 45.5372 6.61143H45.5317ZM8.80989 50.3056C7.64365 50.3129 6.52733 50.7798 5.70318 51.605C4.87903 52.4302 4.41354 53.5471 4.40771 54.7134V87.0274C4.40771 89.4422 6.39508 91.4351 8.80989 91.4351H52.8816C53.0748 91.4351 53.2661 91.3971 53.4445 91.3232C53.623 91.2492 53.7852 91.1409 53.9218 91.0043C54.0584 90.8677 54.1668 90.7055 54.2407 90.527C54.3146 90.3485 54.3527 90.1572 54.3527 89.9641C54.3527 89.7709 54.3146 89.5796 54.2407 89.4011C54.1668 89.2226 54.0584 89.0604 53.9218 88.9238C53.7852 88.7872 53.623 88.6789 53.4445 88.6049C53.2661 88.531 53.0748 88.493 52.8816 88.493H8.80989C8.61618 88.4975 8.42357 88.4627 8.2437 88.3907C8.06383 88.3187 7.90045 88.2109 7.76344 88.0739C7.62643 87.9369 7.51865 87.7735 7.44661 87.5936C7.37458 87.4137 7.33979 87.2211 7.34435 87.0274V54.7189C7.34435 53.8751 7.97164 53.2478 8.80989 53.2478H52.876C53.0692 53.2478 53.2605 53.2098 53.439 53.1358C53.6175 53.0619 53.7796 52.9536 53.9163 52.8169C54.0529 52.6803 54.1612 52.5182 54.2351 52.3397C54.3091 52.1612 54.3471 51.9699 54.3471 51.7767C54.3471 51.5835 54.3091 51.3922 54.2351 51.2138C54.1612 51.0353 54.0529 50.8731 53.9163 50.7365C53.7796 50.5999 53.6175 50.4915 53.439 50.4176C53.2605 50.3437 53.0692 50.3056 52.876 50.3056H8.80989ZM69.0414 50.3112C57.7001 50.3112 48.4683 59.5263 48.4683 70.8676C48.4683 82.2089 57.7001 91.4351 69.0358 91.4351C73.8322 91.4351 78.4675 89.7587 82.1591 86.6999C82.3208 86.5812 82.4566 86.4307 82.558 86.2576C82.6594 86.0845 82.7243 85.8925 82.7488 85.6934C82.7733 85.4943 82.7568 85.2923 82.7003 85.0998C82.6438 84.9073 82.5486 84.7284 82.4204 84.5741C82.2922 84.4198 82.1339 84.2933 81.955 84.2024C81.7762 84.1115 81.5806 84.0582 81.3804 84.0457C81.1802 84.0332 80.9795 84.0618 80.7908 84.1297C80.602 84.1976 80.4291 84.3033 80.2828 84.4405C77.7083 86.5818 74.5768 87.9449 71.2552 88.37C67.9337 88.7951 64.5599 88.2646 61.5291 86.8407C58.4983 85.4168 55.9362 83.1584 54.1431 80.3304C52.35 77.5023 51.4002 74.2218 51.4049 70.8732C51.4027 68.5582 51.8572 66.2656 52.7422 64.1265C53.6273 61.9874 54.9256 60.0439 56.5627 58.4072C58.1999 56.7706 60.1438 55.4729 62.2832 54.5885C64.4226 53.7042 66.7153 53.2505 69.0303 53.2534C71.3456 53.249 73.6391 53.7017 75.7791 54.5856C77.9191 55.4694 79.8636 56.767 81.5011 58.404C83.1386 60.0409 84.4368 61.985 85.3213 64.1248C86.2059 66.2645 86.6593 68.5578 86.6556 70.8732C86.657 74.2429 85.6938 77.5426 83.88 80.3825C83.7639 80.5449 83.6821 80.7293 83.6395 80.9243C83.5969 81.1193 83.5945 81.321 83.6324 81.517C83.6702 81.713 83.7476 81.8992 83.8597 82.0644C83.9718 82.2295 84.1164 82.3701 84.2846 82.4776C84.4528 82.5851 84.6412 82.6573 84.8382 82.6896C85.0351 82.722 85.2366 82.714 85.4304 82.666C85.6242 82.618 85.8062 82.5311 85.9653 82.4105C86.1244 82.2899 86.2573 82.1382 86.3559 81.9646C88.3412 78.8566 89.4546 75.2719 89.5794 71.586C89.7042 67.9001 88.8358 64.2483 87.0653 61.0131C85.2947 57.7778 82.687 55.078 79.5151 53.1962C76.3433 51.3145 72.7239 50.3199 69.0358 50.3167L69.0414 50.3112ZM17.6253 56.1845C17.4195 56.1821 17.2154 56.2229 17.0263 56.3043C16.8372 56.3857 16.6674 56.506 16.5276 56.6572C16.3879 56.8084 16.2815 56.9872 16.2153 57.1822C16.1491 57.3771 16.1245 57.5838 16.1431 57.7888C16.1102 58.9205 15.6403 59.9955 14.832 60.7883C14.0236 61.5811 12.9397 62.0301 11.8076 62.0411C10.9194 62.0522 10.2699 62.7183 10.281 63.5288V78.212C10.2778 78.4183 10.318 78.623 10.3991 78.8127C10.4802 79.0025 10.6003 79.173 10.7516 79.3134C10.9029 79.4537 11.082 79.5606 11.2774 79.6271C11.4727 79.6937 11.6798 79.7184 11.8853 79.6997C13.0057 79.7279 14.0724 80.1855 14.8649 80.978C15.6574 81.7704 16.115 82.8372 16.1431 83.9576C16.0654 84.8236 16.7538 85.5674 17.6253 85.5563H47.0028C48.9846 85.5841 48.9846 82.5919 47.0028 82.6197H18.9465C18.6524 81.2116 17.9537 79.92 16.936 78.9033C15.9183 77.8866 14.626 77.1891 13.2176 76.8963V64.85C14.6267 64.5569 15.9196 63.8585 16.9373 62.8408C17.9551 61.823 18.6534 60.5302 18.9465 59.1211H46.9972C48.9846 59.1488 48.9846 56.1567 46.9972 56.1789L17.6253 56.1845ZM35.2562 62.0522C30.4044 62.0522 26.4408 66.0158 26.4408 70.8676C26.4408 75.7195 30.4044 79.6831 35.2562 79.6831C40.1081 79.6831 44.0717 75.7195 44.0717 70.8676C44.0717 66.0158 40.1025 62.0522 35.2562 62.0522ZM35.2562 64.9944C38.5148 64.9944 41.1295 67.6035 41.1295 70.8676C41.1295 74.1318 38.5204 76.7409 35.2562 76.7409C31.9921 76.7409 29.3719 74.1318 29.3719 70.8676C29.3719 67.6035 31.9921 64.9944 35.2562 64.9944Z" fill="#F95E19"/>
<path d="M60 71.9639H61.4211V70.7797H60V68.885H61.7526L61.7763 68.8376C61.8395 68.6324 61.9026 68.435 61.9658 68.2455C62.0289 68.056 62.1789 67.7324 62.4158 67.2745C62.6526 66.8166 62.9053 66.3981 63.1737 66.0192C63.4421 65.6245 63.8132 65.1902 64.2868 64.7166C64.7605 64.2429 65.2658 63.8481 65.8026 63.5324C66.3553 63.2008 67.0184 62.9245 67.7921 62.7034C68.5816 62.4824 69.4184 62.3718 70.3026 62.3718C71.1237 62.3718 71.8895 62.4587 72.6 62.6324C73.3263 62.806 73.9105 63.0192 74.3526 63.2718C74.8105 63.5087 75.2053 63.7455 75.5368 63.9824C75.8684 64.2192 76.1053 64.4245 76.2474 64.5981L76.4605 64.8587L75.6316 66.635C75.5842 66.5718 75.5211 66.4929 75.4421 66.3981C75.3632 66.2876 75.1658 66.106 74.85 65.8534C74.55 65.6008 74.2184 65.3797 73.8553 65.1902C73.5079 64.985 73.0342 64.8034 72.4342 64.6455C71.8342 64.4718 71.2026 64.385 70.5395 64.385C69.5605 64.385 68.6684 64.5429 67.8632 64.8587C67.0579 65.1587 66.4263 65.5297 65.9684 65.9718C65.5263 66.4139 65.1474 66.856 64.8316 67.2981C64.5158 67.7402 64.3026 68.1113 64.1921 68.4113L64.0263 68.885H73.0263L72.4342 70.7797H63.6711V71.9639H72.0789L71.4868 73.8587H64.0263C64.0579 73.985 64.1132 74.1508 64.1921 74.356C64.2711 74.5455 64.4763 74.9008 64.8079 75.4218C65.1553 75.9429 65.55 76.4008 65.9921 76.7955C66.4342 77.1902 67.0579 77.5534 67.8632 77.885C68.6684 78.2008 69.5605 78.3587 70.5395 78.3587C71.2026 78.3587 71.8342 78.2639 72.4342 78.0745C73.05 77.8692 73.5553 77.6324 73.95 77.3639C74.3605 77.0797 74.7158 76.8034 75.0158 76.535C75.3158 76.2508 75.5289 76.006 75.6553 75.8008L75.8684 75.5166H76.2237V77.885C76.1763 77.9481 76.1053 78.035 76.0105 78.1455C75.9158 78.256 75.6868 78.4613 75.3237 78.7613C74.9763 79.0455 74.5895 79.2981 74.1632 79.5192C73.7526 79.7245 73.2 79.9139 72.5053 80.0876C71.8105 80.2771 71.0763 80.3718 70.3026 80.3718C69.4184 80.3718 68.5816 80.2534 67.7921 80.0166C67.0026 79.7955 66.3395 79.535 65.8026 79.235C65.2658 78.9192 64.7526 78.5166 64.2632 78.0271C63.7895 77.5218 63.4263 77.0955 63.1737 76.7481C62.9211 76.4008 62.6684 75.9745 62.4158 75.4692C62.1632 74.9481 62.0132 74.6245 61.9658 74.4981C61.9184 74.3718 61.8553 74.1745 61.7763 73.906L61.7526 73.8587H60V71.9639Z" fill="#141C28"/>
</svg>
