<svg width="27" height="27" viewBox="0 0 27 27" fill="none" xmlns="http://www.w3.org/2000/svg">
<path d="M25.8437 19.226C26.1327 18.5721 26.0336 17.8148 25.5918 17.2482L15.3038 4.0324C14.8461 3.43135 14.1188 3.16631 13.3875 3.30888C12.6421 3.45386 11.9458 4.26624 11.8186 5.01493L10.8329 10.8267C10.731 11.4231 11.0515 12.0122 11.6074 12.2499L19.0949 15.4617C19.482 15.6193 19.6601 16.065 19.4882 16.446C19.3275 16.8225 18.8901 16.9973 18.5039 16.8393L11.0127 13.6183C10.4564 13.3797 9.81017 13.5518 9.44698 14.0362L5.89833 18.7647C5.4757 19.3213 5.38913 20.0236 5.64147 20.655C5.67116 20.7293 5.70456 20.8129 5.74446 20.8831C6.12585 21.5707 6.84901 21.9493 7.63081 21.8846L24.2297 20.3879C24.939 20.3306 25.5557 19.8795 25.8437 19.226Z" fill="#F95E19"/>
<path opacity="0.4" fill-rule="evenodd" clip-rule="evenodd" d="M5.79585 7.40467C5.7246 7.22638 5.72113 7.021 5.80346 6.83087C5.9668 6.45006 6.40696 6.27416 6.78777 6.43751L8.56277 7.19812C8.94265 7.36184 9.11893 7.80292 8.95651 8.18336C8.79279 8.56324 8.35171 8.73951 7.97127 8.5771L6.19682 7.81518C6.00614 7.73416 5.8671 7.58296 5.79585 7.40467ZM6.08436 11.3398C6.01311 11.1615 6.00965 10.9561 6.09197 10.766C6.25532 10.3852 6.69547 10.2093 7.07628 10.3726L8.85129 11.1332C9.23117 11.297 9.40744 11.738 9.24502 12.1185C9.08131 12.4984 8.64022 12.6746 8.25979 12.5122L6.48534 11.7503C6.29465 11.6693 6.15561 11.5181 6.08436 11.3398ZM2.86529 12.8995C2.78296 13.0896 2.78643 13.295 2.85768 13.4733C2.92893 13.6515 3.06797 13.8027 3.25865 13.8838L5.0331 14.6457C5.41354 14.8081 5.85462 14.6318 6.01834 14.2519C6.18076 13.8715 6.00449 13.4304 5.6246 13.2667L3.8496 12.5061C3.46879 12.3427 3.02863 12.5186 2.86529 12.8995Z" fill="#F95E19"/>
</svg>
