<svg width="42" height="43" viewBox="0 0 42 43" fill="none" xmlns="http://www.w3.org/2000/svg">
<path d="M29.25 11.6218C29.6642 11.6218 30 11.286 30 10.8718C30 10.4576 29.6642 10.1218 29.25 10.1218C28.8358 10.1218 28.5 10.4576 28.5 10.8718C28.5 11.286 28.8358 11.6218 29.25 11.6218Z" fill="#F95E19"/>
<path d="M33 14.6218V7.12183C32.069 6.9566 31.2118 6.50758 30.5458 5.83626C29.8799 5.16495 29.4377 4.30417 29.28 3.37183H6.72C6.54974 4.39001 6.04013 5.32068 5.274 6.01258C4.63799 6.59098 3.84826 6.97309 3 7.11283V14.6218C4.01546 14.7997 4.94074 15.3162 5.625 16.0873C6.20005 16.729 6.57993 17.5216 6.72 18.3718H23.844C25.6947 17.4166 27.7427 16.9061 29.8252 16.8808C29.9801 16.5914 30.1689 16.3215 30.3877 16.0768C31.0689 15.3103 31.9897 14.7974 33 14.6218ZM6.75 13.1218C6.30499 13.1218 5.86998 12.9899 5.49997 12.7426C5.12996 12.4954 4.84157 12.144 4.67127 11.7329C4.50097 11.3217 4.45642 10.8693 4.54323 10.4329C4.63005 9.99641 4.84434 9.5955 5.15901 9.28083C5.47368 8.96617 5.87459 8.75187 6.31105 8.66506C6.7475 8.57824 7.1999 8.6228 7.61104 8.7931C8.02217 8.96339 8.37357 9.25178 8.62081 9.62179C8.86804 9.9918 9 10.4268 9 10.8718C9 11.4686 8.76295 12.0409 8.34099 12.4628C7.91903 12.8848 7.34674 13.1218 6.75 13.1218ZM18 16.8718C16.8133 16.8718 15.6533 16.5199 14.6666 15.8606C13.6799 15.2014 12.9108 14.2643 12.4567 13.1679C12.0026 12.0716 11.8838 10.8652 12.1153 9.70128C12.3468 8.5374 12.9182 7.4683 13.7574 6.62918C14.5965 5.79007 15.6656 5.21863 16.8295 4.98711C17.9933 4.7556 19.1997 4.87442 20.2961 5.32855C21.3925 5.78267 22.3295 6.55171 22.9888 7.5384C23.6481 8.5251 24 9.68514 24 10.8718C23.9982 12.4626 23.3655 13.9877 22.2407 15.1125C21.1158 16.2373 19.5907 16.87 18 16.8718ZM29.25 13.1218C28.805 13.1218 28.37 12.9899 28 12.7426C27.63 12.4954 27.3416 12.144 27.1713 11.7329C27.001 11.3217 26.9564 10.8693 27.0432 10.4329C27.13 9.99641 27.3443 9.5955 27.659 9.28083C27.9737 8.96617 28.3746 8.75187 28.811 8.66506C29.2475 8.57824 29.6999 8.6228 30.111 8.7931C30.5222 8.96339 30.8736 9.25178 31.1208 9.62179C31.368 9.9918 31.5 10.4268 31.5 10.8718C31.5 11.4686 31.2629 12.0409 30.841 12.4628C30.419 12.8848 29.8467 13.1218 29.25 13.1218Z" fill="#F95E19"/>
<path d="M0.75 21.3718H19.9665C20.448 20.8307 20.9722 20.3291 21.534 19.8718H6.6075C6.27592 19.8686 5.95652 19.7464 5.7074 19.5276C5.45827 19.3087 5.29597 19.0077 5.25 18.6793C5.15256 18.0304 4.85061 17.4294 4.38808 16.9639C3.92555 16.4985 3.32656 16.1927 2.67825 16.0911C2.34987 16.0451 2.04938 15.8814 1.83265 15.6305C1.61592 15.3795 1.4977 15.0584 1.5 14.7268V7.01683C1.49269 6.6903 1.60368 6.37215 1.8125 6.12102C2.02131 5.86989 2.31388 5.70272 2.63625 5.65033C3.24445 5.57493 3.81434 5.31292 4.2675 4.90033C4.79886 4.42145 5.14636 3.77209 5.25 3.06433C5.29597 2.73593 5.45827 2.43494 5.7074 2.2161C5.95652 1.99725 6.27592 1.87509 6.6075 1.87183H29.3925C29.7241 1.87509 30.0435 1.99725 30.2926 2.2161C30.5417 2.43494 30.704 2.73593 30.75 3.06433C30.8477 3.71318 31.1497 4.31399 31.6122 4.77945C32.0747 5.24491 32.6735 5.55076 33.3217 5.65258C33.6501 5.69856 33.9506 5.86225 34.1674 6.11319C34.3841 6.36413 34.5023 6.68525 34.5 7.01683V14.7268C34.5012 15.0619 34.3799 15.3858 34.1589 15.6376C33.9378 15.8895 33.6324 16.0518 33.3 16.0941C32.6563 16.1983 32.0637 16.5083 31.611 16.9776C33.1391 17.1612 34.6239 17.6075 36 18.2968V1.12183C36 0.922914 35.921 0.732148 35.7803 0.591496C35.6397 0.450844 35.4489 0.371826 35.25 0.371826H0.75C0.551088 0.371826 0.360322 0.450844 0.21967 0.591496C0.0790176 0.732148 0 0.922914 0 1.12183V20.6218C0 20.8207 0.0790176 21.0115 0.21967 21.1522C0.360322 21.2928 0.551088 21.3718 0.75 21.3718Z" fill="#F95E19"/>
<path d="M6.75 11.6218C7.16421 11.6218 7.5 11.286 7.5 10.8718C7.5 10.4576 7.16421 10.1218 6.75 10.1218C6.33579 10.1218 6 10.4576 6 10.8718C6 11.286 6.33579 11.6218 6.75 11.6218Z" fill="#F95E19"/>
<path d="M18 15.3718C20.4853 15.3718 22.5 13.3571 22.5 10.8718C22.5 8.38654 20.4853 6.37183 18 6.37183C15.5147 6.37183 13.5 8.38654 13.5 10.8718C13.5 13.3571 15.5147 15.3718 18 15.3718Z" fill="#F95E19"/>
<path d="M42 30.3718C42 27.9985 41.2962 25.6784 39.9776 23.705C38.6591 21.7316 36.7849 20.1935 34.5922 19.2853C32.3995 18.377 29.9867 18.1394 27.6589 18.6024C25.3311 19.0654 23.193 20.2083 21.5147 21.8865C19.8365 23.5648 18.6936 25.703 18.2306 28.0307C17.7676 30.3585 18.0052 32.7713 18.9135 34.964C19.8217 37.1567 21.3598 39.0309 23.3332 40.3495C25.3066 41.668 27.6266 42.3718 30 42.3718C33.1814 42.3681 36.2315 41.1026 38.4811 38.8529C40.7307 36.6033 41.9962 33.5533 42 30.3718ZM22.3598 32.6968C22.0531 32.6691 21.7625 32.5472 21.5278 32.3478C21.2931 32.1484 21.1259 31.8812 21.049 31.5831C20.9721 31.2849 20.9893 30.9702 21.0983 30.6822C21.2073 30.3942 21.4027 30.1469 21.6578 29.9743L32.8965 22.3828C33.1369 22.218 33.4202 22.1269 33.7116 22.1205C34.0031 22.1141 34.2901 22.1927 34.5375 22.3468C34.7844 22.4964 34.9821 22.7149 35.1065 22.9754C35.2308 23.2359 35.2763 23.5271 35.2373 23.8131L33.45 37.3251C33.4126 37.6255 33.2835 37.9072 33.0803 38.1317C32.8771 38.3562 32.6097 38.5127 32.3145 38.5798C32.1951 38.608 32.0727 38.6221 31.95 38.6218C31.7037 38.6223 31.4611 38.5618 31.244 38.4455C31.0269 38.3293 30.8419 38.1611 30.7058 37.9558L27.495 33.2001L22.3598 32.6968Z" fill="#F95E19"/>
<path d="M28.848 32.5243L31.95 37.1218L33.75 23.6218L22.5 31.2133L27.594 31.7023L29.394 29.1861C29.4495 29.1018 29.5214 29.0296 29.6055 28.9737C29.6895 28.9179 29.784 28.8796 29.8832 28.8611C29.9824 28.8426 30.0843 28.8444 30.1828 28.8662C30.2813 28.8881 30.3744 28.9296 30.4565 28.9882C30.5386 29.0469 30.6081 29.1215 30.6606 29.2077C30.7132 29.2938 30.7479 29.3897 30.7625 29.4895C30.7772 29.5894 30.7715 29.6911 30.7459 29.7887C30.7203 29.8863 30.6753 29.9778 30.6135 30.0576L28.848 32.5243Z" fill="#F95E19"/>
</svg>
