<svg width="22" height="26" viewBox="0 0 22 26" fill="none" xmlns="http://www.w3.org/2000/svg">
<path fill-rule="evenodd" clip-rule="evenodd" d="M10.6601 25.3921C10.7986 25.4644 10.9534 25.5012 11.1081 25.4999C11.2629 25.4987 11.4165 25.4607 11.5561 25.3872L16.016 23.0031C17.2807 22.3289 18.2711 21.5751 19.0438 20.6974C20.7237 18.7853 21.6411 16.3448 21.6248 13.8283L21.5719 5.52748C21.5669 4.57139 20.9389 3.71826 20.0102 3.40815L11.7134 0.624455C11.2138 0.455301 10.6664 0.458978 10.1756 0.633036L1.91033 3.51601C0.986648 3.83839 0.370021 4.69764 0.375055 5.65496L0.427909 13.9496C0.444268 16.4698 1.39312 18.8992 3.1008 20.7918C3.88102 21.6572 4.88021 22.4 6.15876 23.0631L10.6601 25.3921ZM9.4795 15.6362C9.66574 15.8151 9.90736 15.9034 10.149 15.9009C10.3906 15.8997 10.631 15.809 10.8147 15.6276L15.6886 10.8226C16.0548 10.461 16.051 9.88001 15.681 9.52332C15.3098 9.16662 14.712 9.16908 14.3458 9.53067L10.1351 13.6811L8.4111 12.0239C8.03986 11.6672 7.44337 11.6708 7.07591 12.0324C6.70971 12.394 6.71349 12.975 7.08472 13.3317L9.4795 15.6362Z" fill="#141C28"/>
</svg>
