<svg width="39" height="37" viewBox="0 0 39 37" fill="none" xmlns="http://www.w3.org/2000/svg">
<path d="M26.3811 20.0387C25.1657 19.6612 23.9267 19.364 22.6723 19.149C22.0747 20.2909 21.1758 21.2474 20.0733 21.9148C18.9708 22.5821 17.7066 22.9349 16.4178 22.9349C15.129 22.9349 13.8648 22.5821 12.7622 21.9148C11.6597 21.2474 10.7608 20.2909 10.1632 19.149C10.1055 19.149 4.74439 20.0619 3.54269 21.5716C1.64789 23.9517 1.57856 28.0765 1.24738 30.9534C1.1203 32.024 1.01624 33.1064 0.94691 34.1886C0.924944 34.5013 0.967453 34.8152 1.0718 35.1109C1.17615 35.4065 1.34011 35.6775 1.55352 35.9072C1.76693 36.1368 2.02524 36.3202 2.31243 36.4459C2.59962 36.5716 2.90958 36.637 3.22308 36.638H24.5634C23.2888 35.5821 22.2963 34.2264 21.6748 32.6924C21.0533 31.1584 20.8223 29.4941 21.0024 27.8489C21.1826 26.2036 21.7683 24.6288 22.7071 23.2657C23.6458 21.9025 24.9083 20.7937 26.3811 20.0387Z" fill="#F95E19"/>
<path d="M9.18793 16.9053C9.61917 16.9053 11.3476 17.1676 11.6192 16.8829C12.3413 16.1225 10.9163 13.8706 10.7474 13.0675C10.5093 11.936 10.6883 10.0707 11.7488 9.34318C12.4333 8.87378 13.5453 9.27059 14.3256 9.19695C15.1915 9.1104 16.0309 8.849 16.7928 8.42858C17.5662 7.99912 18.0374 7.13084 18.8615 7.87086C19.6117 8.54452 20.5893 8.75176 21.1841 9.60148C21.8125 10.499 21.8762 11.7687 21.7518 12.8179C21.5941 14.1461 21.0205 15.4879 21.0549 16.8206C21.9165 17.0573 24.2674 17.398 24.212 15.9411C24.1099 13.2556 24.432 9.71757 23.8299 6.68772C23.3062 4.05113 22.0825 1.79915 19.2707 0.828297C15.3171 -0.536691 10.5143 1.22258 9.1085 5.26336C7.87935 8.79674 8.63243 12.6805 8.61313 16.3274C8.61272 16.4032 8.62728 16.4782 8.65599 16.5483C8.68469 16.6184 8.72697 16.6822 8.78038 16.7359C8.8338 16.7896 8.8973 16.8322 8.96724 16.8613C9.03718 16.8904 9.11218 16.9053 9.18793 16.9053Z" fill="#F95E19"/>
<path d="M33.8533 26.4678C33.7459 26.3743 33.6212 26.303 33.4862 26.2577C33.3512 26.2125 33.2086 26.1943 33.0666 26.2041C32.9245 26.214 32.7858 26.2518 32.6584 26.3152C32.531 26.3787 32.4173 26.4667 32.3238 26.5741L30.1281 29.0976L29.4419 28.549C29.3306 28.4601 29.203 28.394 29.0662 28.3544C28.9294 28.3148 28.7862 28.3026 28.6447 28.3183C28.5031 28.3341 28.3661 28.3776 28.2414 28.4464C28.1167 28.5151 28.0068 28.6078 27.9179 28.719C27.7384 28.9437 27.6554 29.2305 27.6873 29.5162C27.7192 29.802 27.8633 30.0633 28.0879 30.2429L29.5869 31.4411C29.8054 31.6158 30.083 31.6992 30.3616 31.674C30.6401 31.6488 30.8982 31.5168 31.0818 31.3057L33.9598 27.9973C34.1484 27.7803 34.2432 27.4973 34.2233 27.2105C34.2034 26.9237 34.0702 26.6566 33.8533 26.4678Z" fill="#F95E19"/>
<path d="M30.9532 21.2419C29.4307 21.242 27.9424 21.6935 26.6765 22.5393C25.4106 23.3852 24.424 24.5875 23.8413 25.9941C23.2587 27.4007 23.1063 28.9485 23.4033 30.4417C23.7003 31.9349 24.4335 33.3066 25.51 34.3832C26.5866 35.4597 27.9582 36.1929 29.4514 36.49C30.9447 36.787 32.4925 36.6346 33.8991 36.052C35.3057 35.4694 36.508 34.4828 37.3539 33.2169C38.1998 31.951 38.6513 30.4627 38.6513 28.9402C38.6491 26.8992 37.8373 24.9425 36.3941 23.4993C34.9509 22.0561 32.9942 21.2443 30.9532 21.2419ZM30.9532 33.9421C29.9639 33.942 28.9968 33.6487 28.1742 33.099C27.3516 32.5494 26.7105 31.7681 26.3319 30.8541C25.9534 29.9401 25.8543 28.9343 26.0474 27.964C26.2404 26.9937 26.7168 26.1024 27.4164 25.4029C28.116 24.7034 29.0073 24.227 29.9776 24.034C30.9479 23.841 31.9537 23.9401 32.8677 24.3188C33.7817 24.6974 34.5629 25.3386 35.1125 26.1612C35.6621 26.9838 35.9554 27.9509 35.9554 28.9402C35.9538 30.2664 35.4262 31.5377 34.4885 32.4754C33.5507 33.4131 32.2793 33.9406 30.9532 33.9421Z" fill="#F95E19"/>
</svg>
