<svg width="94" height="95" viewBox="0 0 94 95" fill="none" xmlns="http://www.w3.org/2000/svg">
<path d="M23.959 62.1375L40.7187 78.8973C42.8697 81.0482 46.3571 81.0482 48.5079 78.8973C50.6588 76.7463 50.6588 73.2589 48.5079 71.1081L27.8987 50.499C25.9053 48.5059 23.1449 47.28 20.1033 47.28H2.75391V80.5105C8.2026 80.5105 13.5924 81.6391 18.5834 83.8249L36.168 91.5261H77.293C80.3349 91.5261 82.8008 89.0603 82.8008 86.0183C82.8008 82.9763 80.3349 80.5105 77.293 80.5105H44.5215" stroke="#F95E19" stroke-width="3" stroke-miterlimit="10"/>
<path d="M66.4609 46.7292C71.0238 46.7292 74.7227 43.0304 74.7227 38.4675C74.7227 33.9047 71.0238 30.2058 66.4609 30.2058C61.8981 30.2058 58.1992 33.9047 58.1992 38.4675C58.1992 43.0304 61.8981 46.7292 66.4609 46.7292Z" stroke="#141C28" stroke-width="3" stroke-miterlimit="10"/>
<path d="M33.0469 25.2488H27.5391M11.0156 14.2332H5.50781M33.0469 36.2644H27.5391M49.5703 3.21753H44.0625M90.5725 32.7187L86.25 31.3505C84.9947 30.9532 83.884 30.094 83.1738 28.8639C82.4637 27.6338 82.275 26.2422 82.5584 24.9567L83.3874 20.3678C80.6221 17.7806 77.2638 15.8203 73.5381 14.712L70.1919 17.7714C69.2202 18.6598 67.9207 19.1922 66.5004 19.1922C65.0801 19.1922 63.7807 18.6598 62.8089 17.7714L59.2494 14.759C55.6262 15.8602 52.2493 17.7884 49.4266 20.4608L50.4029 24.8884C50.6864 26.1741 50.4976 27.5657 49.7875 28.7956C49.0774 30.0257 47.9666 30.8849 46.7114 31.2822L42.3228 32.8587C41.4648 36.5471 41.4463 40.4357 42.3494 44.2164L46.6719 45.5845C47.9271 45.9818 49.0379 46.8411 49.748 48.0711C50.4582 49.3012 50.6469 50.6927 50.3634 51.9784L49.5345 56.5673C52.2998 59.1545 55.6581 61.1147 59.3838 62.2231L62.7299 59.1637C63.7017 58.2753 65.0012 57.7429 66.4215 57.7429C67.8417 57.7429 69.1412 58.2753 70.113 59.1637L73.6727 62.1761C77.2959 61.0749 80.6727 59.1466 83.4955 56.4742L82.5191 52.0467C82.2357 50.761 82.4244 49.3693 83.1346 48.1394C83.8447 46.9094 84.9554 46.0501 86.2107 45.6528L90.5993 44.0763C91.4569 40.3879 91.4754 36.4994 90.5725 32.7187ZM8.26172 25.2488H19.2773V36.2644H8.26172V25.2488ZM24.7852 3.21753H35.8008V14.2332H24.7852V3.21753Z" stroke="#F95E19" stroke-width="3" stroke-miterlimit="10"/>
</svg>
