<svg width="190" height="157" viewBox="0 0 190 157" fill="none" xmlns="http://www.w3.org/2000/svg">
<path opacity="0.7" d="M52 125.126C42.1487 108.215 26.119 119.198 15.0561 110.506C4.8887 102.551 -0.537408 84.2184 0.0420797 69.5732C0.568886 54.928 11.7372 40.3354 26.3297 39.1238C32.7041 38.5969 39.0258 40.4935 45.4001 40.0193C65.7876 38.6496 77.1139 15.7862 95.0253 5.98759C115.676 -5.28607 141.964 2.6687 161.034 16.4184C173.203 25.1634 184.108 36.7531 187.954 51.1876C191.8 65.6221 186.795 83.1121 173.625 90.224C161.772 96.5984 149 93.7714 138 101.648C130.319 107.148 128.897 113.482 130.319 122.806C132.532 137.399 117.066 149.648 103 154.126C88.9343 158.603 72.8781 156.609 62.5 146.126C57.7061 141.174 55.4769 131.079 52 125.126Z" fill="#FFE9DF"/>
</svg>
